# MagicaVoxel @ Ephtracy

# group
o 

# material
mtllib springboard.mtl
usemtl palette

# normals
vn -1 0 0
vn 1 0 0
vn 0 0 1
vn 0 0 -1
vn 0 -1 0
vn 0 1 0

# texcoords
vt 0.0175781 0.5
vt 0.0917969 0.5
vt 0.306641 0.5
vt 0.990234 0.5

# verts
v -2 0 2
v -2 0 1.8
v -2 0 -1.5
v -2 0.1 2
v -2 0.1 1.8
v -2 0.1 1.6
v -2 0.2 1.8
v -2 0.2 1.6
v -2 0.2 1.4
v -2 0.3 1.6
v -2 0.3 1.4
v -2 0.3 1.2
v -2 0.4 1.4
v -2 0.4 1.2
v -2 0.4 1
v -2 0.5 1.2
v -2 0.5 1
v -2 0.5 0.8
v -2 0.6 1
v -2 0.6 0.8
v -2 0.6 0.6
v -2 0.7 0.8
v -2 0.7 0.6
v -2 0.7 0.4
v -2 0.8 0.6
v -2 0.8 0.4
v -2 0.8 0.2
v -2 0.9 0.4
v -2 0.9 0.2
v -2 0.9 -2.38419e-007
v -2 1 0.2
v -2 1 -2.38419e-007
v -2 1 -0.2
v -2 1.1 -2.38419e-007
v -2 1.1 -0.2
v -2 1.1 -0.4
v -2 1.2 -0.2
v -2 1.2 -0.4
v -2 1.2 -0.6
v -2 1.3 -0.4
v -2 1.3 -0.6
v -2 1.3 -0.8
v -2 1.4 -0.6
v -2 1.4 -0.8
v -2 1.4 -1
v -2 1.5 -0.8
v -2 1.5 -1
v -2 1.5 -1.2
v -2 1.6 -1
v -2 1.6 -1.2
v -2 1.6 -1.5
v -2 1.7 -1.2
v -2 1.7 -1.5
v 2 0 2
v 2 0 1.8
v 2 0 -1.5
v 2 0.1 2
v 2 0.1 1.8
v 2 0.1 1.6
v 2 0.2 1.8
v 2 0.2 1.6
v 2 0.2 1.4
v 2 0.3 1.6
v 2 0.3 1.4
v 2 0.3 1.2
v 2 0.4 1.4
v 2 0.4 1.2
v 2 0.4 1
v 2 0.5 1.2
v 2 0.5 1
v 2 0.5 0.8
v 2 0.6 1
v 2 0.6 0.8
v 2 0.6 0.6
v 2 0.7 0.8
v 2 0.7 0.6
v 2 0.7 0.4
v 2 0.8 0.6
v 2 0.8 0.4
v 2 0.8 0.2
v 2 0.9 0.4
v 2 0.9 0.2
v 2 0.9 -2.38419e-007
v 2 1 0.2
v 2 1 -2.38419e-007
v 2 1 -0.2
v 2 1.1 -2.38419e-007
v 2 1.1 -0.2
v 2 1.1 -0.4
v 2 1.2 -0.2
v 2 1.2 -0.4
v 2 1.2 -0.6
v 2 1.3 -0.4
v 2 1.3 -0.6
v 2 1.3 -0.8
v 2 1.4 -0.6
v 2 1.4 -0.8
v 2 1.4 -1
v 2 1.5 -0.8
v 2 1.5 -1
v 2 1.5 -1.2
v 2 1.6 -1
v 2 1.6 -1.2
v 2 1.6 -1.5
v 2 1.7 -1.2
v 2 1.7 -1.5
v -2 0 2
v -2 0.1 2
v -1.9 0 2
v -1.9 0.1 2
v 1.9 0 2
v 1.9 0.1 2
v 2 0 2
v 2 0.1 2
v -2 0.1 1.8
v -2 0.2 1.8
v -1.9 0.1 1.8
v -1.9 0.2 1.8
v 1.9 0.1 1.8
v 1.9 0.2 1.8
v 2 0.1 1.8
v 2 0.2 1.8
v -2 0.2 1.6
v -2 0.3 1.6
v -1.9 0.2 1.6
v -1.9 0.3 1.6
v 1.9 0.2 1.6
v 1.9 0.3 1.6
v 2 0.2 1.6
v 2 0.3 1.6
v -2 0.3 1.4
v -2 0.4 1.4
v -1.9 0.3 1.4
v -1.9 0.4 1.4
v 1.9 0.3 1.4
v 1.9 0.4 1.4
v 2 0.3 1.4
v 2 0.4 1.4
v -2 0.4 1.2
v -2 0.5 1.2
v -1.9 0.4 1.2
v -1.9 0.5 1.2
v 1.9 0.4 1.2
v 1.9 0.5 1.2
v 2 0.4 1.2
v 2 0.5 1.2
v -2 0.5 1
v -2 0.6 1
v -1.9 0.5 1
v -1.9 0.6 1
v 1.9 0.5 1
v 1.9 0.6 1
v 2 0.5 1
v 2 0.6 1
v -2 0.6 0.8
v -2 0.7 0.8
v -1.9 0.6 0.8
v -1.9 0.7 0.8
v 1.9 0.6 0.8
v 1.9 0.7 0.8
v 2 0.6 0.8
v 2 0.7 0.8
v -2 0.7 0.6
v -2 0.8 0.6
v -1.9 0.7 0.6
v -1.9 0.8 0.6
v 1.9 0.7 0.6
v 1.9 0.8 0.6
v 2 0.7 0.6
v 2 0.8 0.6
v -2 0.8 0.4
v -2 0.9 0.4
v -1.9 0.8 0.4
v -1.9 0.9 0.4
v 1.9 0.8 0.4
v 1.9 0.9 0.4
v 2 0.8 0.4
v 2 0.9 0.4
v -2 0.9 0.2
v -2 1 0.2
v -1.9 0.9 0.2
v -1.9 1 0.2
v 1.9 0.9 0.2
v 1.9 1 0.2
v 2 0.9 0.2
v 2 1 0.2
v -2 1 -2.38419e-007
v -2 1.1 -2.38419e-007
v -1.9 1 -2.38419e-007
v -1.9 1.1 -2.38419e-007
v 1.9 1 -2.38419e-007
v 1.9 1.1 -2.38419e-007
v 2 1 -2.38419e-007
v 2 1.1 -2.38419e-007
v -2 1.1 -0.2
v -2 1.2 -0.2
v -1.9 1.1 -0.2
v -1.9 1.2 -0.2
v 1.9 1.1 -0.2
v 1.9 1.2 -0.2
v 2 1.1 -0.2
v 2 1.2 -0.2
v -2 1.2 -0.4
v -2 1.3 -0.4
v -1.9 1.2 -0.4
v -1.9 1.3 -0.4
v 1.9 1.2 -0.4
v 1.9 1.3 -0.4
v 2 1.2 -0.4
v 2 1.3 -0.4
v -2 1.3 -0.6
v -2 1.4 -0.6
v -1.9 1.3 -0.6
v -1.9 1.4 -0.6
v 1.9 1.3 -0.6
v 1.9 1.4 -0.6
v 2 1.3 -0.6
v 2 1.4 -0.6
v -2 1.4 -0.8
v -2 1.5 -0.8
v -1.9 1.4 -0.8
v -1.9 1.5 -0.8
v 1.9 1.4 -0.8
v 1.9 1.5 -0.8
v 2 1.4 -0.8
v 2 1.5 -0.8
v -2 1.5 -1
v -2 1.6 -1
v -1.9 1.5 -1
v -1.9 1.6 -1
v 1.9 1.5 -1
v 1.9 1.6 -1
v 2 1.5 -1
v 2 1.6 -1
v -2 1.6 -1.2
v -2 1.7 -1.2
v -1.9 1.6 -1.2
v 1.9 1.6 -1.2
v 2 1.6 -1.2
v 2 1.7 -1.2
v -2 0 -1.5
v -2 1.6 -1.5
v -2 1.7 -1.5
v 2 0 -1.5
v 2 1.6 -1.5
v 2 1.7 -1.5
v -2 0 2
v -1.9 0 2
v 1.9 0 2
v 2 0 2
v -2 0 1.8
v -1.9 0 1.8
v 1.9 0 1.8
v 2 0 1.8
v -1.9 0 -1.4
v 1.9 0 -1.4
v -2 0 -1.5
v 2 0 -1.5
v -2 0.1 2
v -1.9 0.1 2
v 1.9 0.1 2
v 2 0.1 2
v -2 0.1 1.8
v -1.9 0.1 1.8
v 1.9 0.1 1.8
v 2 0.1 1.8
v -2 0.2 1.8
v -1.9 0.2 1.8
v 1.9 0.2 1.8
v 2 0.2 1.8
v -2 0.2 1.6
v -1.9 0.2 1.6
v 1.9 0.2 1.6
v 2 0.2 1.6
v -2 0.3 1.6
v -1.9 0.3 1.6
v 1.9 0.3 1.6
v 2 0.3 1.6
v -2 0.3 1.4
v -1.9 0.3 1.4
v 1.9 0.3 1.4
v 2 0.3 1.4
v -2 0.4 1.4
v -1.9 0.4 1.4
v 1.9 0.4 1.4
v 2 0.4 1.4
v -2 0.4 1.2
v -1.9 0.4 1.2
v 1.9 0.4 1.2
v 2 0.4 1.2
v -2 0.5 1.2
v -1.9 0.5 1.2
v 1.9 0.5 1.2
v 2 0.5 1.2
v -2 0.5 1
v -1.9 0.5 1
v 1.9 0.5 1
v 2 0.5 1
v -2 0.6 1
v -1.9 0.6 1
v 1.9 0.6 1
v 2 0.6 1
v -2 0.6 0.8
v -1.9 0.6 0.8
v 1.9 0.6 0.8
v 2 0.6 0.8
v -2 0.7 0.8
v -1.9 0.7 0.8
v 1.9 0.7 0.8
v 2 0.7 0.8
v -2 0.7 0.6
v -1.9 0.7 0.6
v 1.9 0.7 0.6
v 2 0.7 0.6
v -2 0.8 0.6
v -1.9 0.8 0.6
v 1.9 0.8 0.6
v 2 0.8 0.6
v -2 0.8 0.4
v -1.9 0.8 0.4
v 1.9 0.8 0.4
v 2 0.8 0.4
v -2 0.9 0.4
v -1.9 0.9 0.4
v 1.9 0.9 0.4
v 2 0.9 0.4
v -2 0.9 0.2
v -1.9 0.9 0.2
v 1.9 0.9 0.2
v 2 0.9 0.2
v -2 1 0.2
v -1.9 1 0.2
v 1.9 1 0.2
v 2 1 0.2
v -2 1 -2.38419e-007
v -1.9 1 -2.38419e-007
v 1.9 1 -2.38419e-007
v 2 1 -2.38419e-007
v -2 1.1 -2.38419e-007
v -1.9 1.1 -2.38419e-007
v 1.9 1.1 -2.38419e-007
v 2 1.1 -2.38419e-007
v -2 1.1 -0.2
v -1.9 1.1 -0.2
v 1.9 1.1 -0.2
v 2 1.1 -0.2
v -2 1.2 -0.2
v -1.9 1.2 -0.2
v 1.9 1.2 -0.2
v 2 1.2 -0.2
v -2 1.2 -0.4
v -1.9 1.2 -0.4
v 1.9 1.2 -0.4
v 2 1.2 -0.4
v -2 1.3 -0.4
v -1.9 1.3 -0.4
v 1.9 1.3 -0.4
v 2 1.3 -0.4
v -2 1.3 -0.6
v -1.9 1.3 -0.6
v 1.9 1.3 -0.6
v 2 1.3 -0.6
v -2 1.4 -0.6
v -1.9 1.4 -0.6
v 1.9 1.4 -0.6
v 2 1.4 -0.6
v -2 1.4 -0.8
v -1.9 1.4 -0.8
v 1.9 1.4 -0.8
v 2 1.4 -0.8
v -2 1.5 -0.8
v -1.9 1.5 -0.8
v 1.9 1.5 -0.8
v 2 1.5 -0.8
v -2 1.5 -1
v -1.9 1.5 -1
v 1.9 1.5 -1
v 2 1.5 -1
v -2 1.6 -1
v -1.9 1.6 -1
v 1.9 1.6 -1
v 2 1.6 -1
v -2 1.6 -1.2
v -1.9 1.6 -1.2
v 1.9 1.6 -1.2
v 2 1.6 -1.2
v -2 1.7 -1.2
v 2 1.7 -1.2
v -2 1.7 -1.5
v 2 1.7 -1.5

# faces
f 4/1/1 2/1/1 1/1/1
f 5/4/1 3/4/1 2/4/1
f 5/1/1 2/1/1 4/1/1
f 6/4/1 3/4/1 5/4/1
f 7/1/1 6/1/1 5/1/1
f 8/4/1 3/4/1 6/4/1
f 8/1/1 6/1/1 7/1/1
f 9/4/1 3/4/1 8/4/1
f 10/1/1 9/1/1 8/1/1
f 11/4/1 3/4/1 9/4/1
f 11/1/1 9/1/1 10/1/1
f 12/4/1 3/4/1 11/4/1
f 13/1/1 12/1/1 11/1/1
f 14/4/1 3/4/1 12/4/1
f 14/1/1 12/1/1 13/1/1
f 15/4/1 3/4/1 14/4/1
f 16/1/1 15/1/1 14/1/1
f 17/4/1 3/4/1 15/4/1
f 17/1/1 15/1/1 16/1/1
f 18/4/1 3/4/1 17/4/1
f 19/1/1 18/1/1 17/1/1
f 20/4/1 3/4/1 18/4/1
f 20/1/1 18/1/1 19/1/1
f 21/4/1 3/4/1 20/4/1
f 22/1/1 21/1/1 20/1/1
f 23/4/1 3/4/1 21/4/1
f 23/1/1 21/1/1 22/1/1
f 24/4/1 3/4/1 23/4/1
f 25/1/1 24/1/1 23/1/1
f 26/4/1 3/4/1 24/4/1
f 26/1/1 24/1/1 25/1/1
f 27/4/1 3/4/1 26/4/1
f 28/1/1 27/1/1 26/1/1
f 29/4/1 3/4/1 27/4/1
f 29/1/1 27/1/1 28/1/1
f 30/4/1 3/4/1 29/4/1
f 31/1/1 30/1/1 29/1/1
f 32/4/1 3/4/1 30/4/1
f 32/1/1 30/1/1 31/1/1
f 33/4/1 3/4/1 32/4/1
f 34/1/1 33/1/1 32/1/1
f 35/4/1 3/4/1 33/4/1
f 35/1/1 33/1/1 34/1/1
f 36/4/1 3/4/1 35/4/1
f 37/1/1 36/1/1 35/1/1
f 38/4/1 3/4/1 36/4/1
f 38/1/1 36/1/1 37/1/1
f 39/4/1 3/4/1 38/4/1
f 40/1/1 39/1/1 38/1/1
f 41/4/1 3/4/1 39/4/1
f 41/1/1 39/1/1 40/1/1
f 42/4/1 3/4/1 41/4/1
f 43/1/1 42/1/1 41/1/1
f 44/4/1 3/4/1 42/4/1
f 44/1/1 42/1/1 43/1/1
f 45/4/1 3/4/1 44/4/1
f 46/1/1 45/1/1 44/1/1
f 47/4/1 3/4/1 45/4/1
f 47/1/1 45/1/1 46/1/1
f 48/4/1 3/4/1 47/4/1
f 49/1/1 48/1/1 47/1/1
f 50/4/1 3/4/1 48/4/1
f 50/1/1 48/1/1 49/1/1
f 51/4/1 3/4/1 50/4/1
f 52/1/1 51/1/1 50/1/1
f 53/1/1 51/1/1 52/1/1
f 54/1/2 55/1/2 57/1/2
f 55/4/2 56/4/2 58/4/2
f 57/1/2 55/1/2 58/1/2
f 58/4/2 56/4/2 59/4/2
f 58/1/2 59/1/2 60/1/2
f 59/4/2 56/4/2 61/4/2
f 60/1/2 59/1/2 61/1/2
f 61/4/2 56/4/2 62/4/2
f 61/1/2 62/1/2 63/1/2
f 62/4/2 56/4/2 64/4/2
f 63/1/2 62/1/2 64/1/2
f 64/4/2 56/4/2 65/4/2
f 64/1/2 65/1/2 66/1/2
f 65/4/2 56/4/2 67/4/2
f 66/1/2 65/1/2 67/1/2
f 67/4/2 56/4/2 68/4/2
f 67/1/2 68/1/2 69/1/2
f 68/4/2 56/4/2 70/4/2
f 69/1/2 68/1/2 70/1/2
f 70/4/2 56/4/2 71/4/2
f 70/1/2 71/1/2 72/1/2
f 71/4/2 56/4/2 73/4/2
f 72/1/2 71/1/2 73/1/2
f 73/4/2 56/4/2 74/4/2
f 73/1/2 74/1/2 75/1/2
f 74/4/2 56/4/2 76/4/2
f 75/1/2 74/1/2 76/1/2
f 76/4/2 56/4/2 77/4/2
f 76/1/2 77/1/2 78/1/2
f 77/4/2 56/4/2 79/4/2
f 78/1/2 77/1/2 79/1/2
f 79/4/2 56/4/2 80/4/2
f 79/1/2 80/1/2 81/1/2
f 80/4/2 56/4/2 82/4/2
f 81/1/2 80/1/2 82/1/2
f 82/4/2 56/4/2 83/4/2
f 82/1/2 83/1/2 84/1/2
f 83/4/2 56/4/2 85/4/2
f 84/1/2 83/1/2 85/1/2
f 85/4/2 56/4/2 86/4/2
f 85/1/2 86/1/2 87/1/2
f 86/4/2 56/4/2 88/4/2
f 87/1/2 86/1/2 88/1/2
f 88/4/2 56/4/2 89/4/2
f 88/1/2 89/1/2 90/1/2
f 89/4/2 56/4/2 91/4/2
f 90/1/2 89/1/2 91/1/2
f 91/4/2 56/4/2 92/4/2
f 91/1/2 92/1/2 93/1/2
f 92/4/2 56/4/2 94/4/2
f 93/1/2 92/1/2 94/1/2
f 94/4/2 56/4/2 95/4/2
f 94/1/2 95/1/2 96/1/2
f 95/4/2 56/4/2 97/4/2
f 96/1/2 95/1/2 97/1/2
f 97/4/2 56/4/2 98/4/2
f 97/1/2 98/1/2 99/1/2
f 98/4/2 56/4/2 100/4/2
f 99/1/2 98/1/2 100/1/2
f 100/4/2 56/4/2 101/4/2
f 100/1/2 101/1/2 102/1/2
f 101/4/2 56/4/2 103/4/2
f 102/1/2 101/1/2 103/1/2
f 103/4/2 56/4/2 104/4/2
f 103/1/2 104/1/2 105/1/2
f 105/1/2 104/1/2 106/1/2
f 109/1/3 108/1/3 107/1/3
f 110/1/3 108/1/3 109/1/3
f 111/4/3 110/4/3 109/4/3
f 112/4/3 110/4/3 111/4/3
f 113/1/3 112/1/3 111/1/3
f 114/1/3 112/1/3 113/1/3
f 117/1/3 116/1/3 115/1/3
f 118/1/3 116/1/3 117/1/3
f 119/4/3 118/4/3 117/4/3
f 120/4/3 118/4/3 119/4/3
f 121/1/3 120/1/3 119/1/3
f 122/1/3 120/1/3 121/1/3
f 125/1/3 124/1/3 123/1/3
f 126/1/3 124/1/3 125/1/3
f 127/4/3 126/4/3 125/4/3
f 128/4/3 126/4/3 127/4/3
f 129/1/3 128/1/3 127/1/3
f 130/1/3 128/1/3 129/1/3
f 133/1/3 132/1/3 131/1/3
f 134/1/3 132/1/3 133/1/3
f 135/4/3 134/4/3 133/4/3
f 136/4/3 134/4/3 135/4/3
f 137/1/3 136/1/3 135/1/3
f 138/1/3 136/1/3 137/1/3
f 141/1/3 140/1/3 139/1/3
f 142/1/3 140/1/3 141/1/3
f 143/4/3 142/4/3 141/4/3
f 144/4/3 142/4/3 143/4/3
f 145/1/3 144/1/3 143/1/3
f 146/1/3 144/1/3 145/1/3
f 149/1/3 148/1/3 147/1/3
f 150/1/3 148/1/3 149/1/3
f 151/4/3 150/4/3 149/4/3
f 152/4/3 150/4/3 151/4/3
f 153/1/3 152/1/3 151/1/3
f 154/1/3 152/1/3 153/1/3
f 157/1/3 156/1/3 155/1/3
f 158/1/3 156/1/3 157/1/3
f 159/4/3 158/4/3 157/4/3
f 160/4/3 158/4/3 159/4/3
f 161/1/3 160/1/3 159/1/3
f 162/1/3 160/1/3 161/1/3
f 165/1/3 164/1/3 163/1/3
f 166/1/3 164/1/3 165/1/3
f 167/4/3 166/4/3 165/4/3
f 168/4/3 166/4/3 167/4/3
f 169/1/3 168/1/3 167/1/3
f 170/1/3 168/1/3 169/1/3
f 173/1/3 172/1/3 171/1/3
f 174/1/3 172/1/3 173/1/3
f 175/4/3 174/4/3 173/4/3
f 176/4/3 174/4/3 175/4/3
f 177/1/3 176/1/3 175/1/3
f 178/1/3 176/1/3 177/1/3
f 181/1/3 180/1/3 179/1/3
f 182/1/3 180/1/3 181/1/3
f 183/4/3 182/4/3 181/4/3
f 184/4/3 182/4/3 183/4/3
f 185/1/3 184/1/3 183/1/3
f 186/1/3 184/1/3 185/1/3
f 189/1/3 188/1/3 187/1/3
f 190/1/3 188/1/3 189/1/3
f 191/4/3 190/4/3 189/4/3
f 192/4/3 190/4/3 191/4/3
f 193/1/3 192/1/3 191/1/3
f 194/1/3 192/1/3 193/1/3
f 197/1/3 196/1/3 195/1/3
f 198/1/3 196/1/3 197/1/3
f 199/4/3 198/4/3 197/4/3
f 200/4/3 198/4/3 199/4/3
f 201/1/3 200/1/3 199/1/3
f 202/1/3 200/1/3 201/1/3
f 205/1/3 204/1/3 203/1/3
f 206/1/3 204/1/3 205/1/3
f 207/4/3 206/4/3 205/4/3
f 208/4/3 206/4/3 207/4/3
f 209/1/3 208/1/3 207/1/3
f 210/1/3 208/1/3 209/1/3
f 213/1/3 212/1/3 211/1/3
f 214/1/3 212/1/3 213/1/3
f 215/4/3 214/4/3 213/4/3
f 216/4/3 214/4/3 215/4/3
f 217/1/3 216/1/3 215/1/3
f 218/1/3 216/1/3 217/1/3
f 221/1/3 220/1/3 219/1/3
f 222/1/3 220/1/3 221/1/3
f 223/4/3 222/4/3 221/4/3
f 224/4/3 222/4/3 223/4/3
f 225/1/3 224/1/3 223/1/3
f 226/1/3 224/1/3 225/1/3
f 229/1/3 228/1/3 227/1/3
f 230/1/3 228/1/3 229/1/3
f 231/4/3 230/4/3 229/4/3
f 232/4/3 230/4/3 231/4/3
f 233/1/3 232/1/3 231/1/3
f 234/1/3 232/1/3 233/1/3
f 237/1/3 236/1/3 235/1/3
f 238/1/3 236/1/3 237/1/3
f 239/1/3 236/1/3 238/1/3
f 240/1/3 236/1/3 239/1/3
f 241/4/4 242/4/4 244/4/4
f 242/1/4 243/1/4 245/1/4
f 244/4/4 242/4/4 245/4/4
f 245/1/4 243/1/4 246/1/4
f 251/1/5 248/1/5 247/1/5
f 252/4/5 249/4/5 248/4/5
f 252/1/5 248/1/5 251/1/5
f 253/1/5 250/1/5 249/1/5
f 253/4/5 249/4/5 252/4/5
f 254/1/5 250/1/5 253/1/5
f 255/4/5 252/4/5 251/4/5
f 255/3/5 253/3/5 252/3/5
f 256/4/5 254/4/5 253/4/5
f 256/3/5 253/3/5 255/3/5
f 257/4/5 255/4/5 251/4/5
f 257/4/5 256/4/5 255/4/5
f 258/4/5 254/4/5 256/4/5
f 258/4/5 256/4/5 257/4/5
f 259/1/6 260/1/6 263/1/6
f 260/4/6 261/4/6 264/4/6
f 263/1/6 260/1/6 264/1/6
f 261/1/6 262/1/6 265/1/6
f 264/4/6 261/4/6 265/4/6
f 265/1/6 262/1/6 266/1/6
f 267/1/6 268/1/6 271/1/6
f 268/4/6 269/4/6 272/4/6
f 271/1/6 268/1/6 272/1/6
f 269/1/6 270/1/6 273/1/6
f 272/4/6 269/4/6 273/4/6
f 273/1/6 270/1/6 274/1/6
f 275/1/6 276/1/6 279/1/6
f 276/4/6 277/4/6 280/4/6
f 279/1/6 276/1/6 280/1/6
f 277/1/6 278/1/6 281/1/6
f 280/4/6 277/4/6 281/4/6
f 281/1/6 278/1/6 282/1/6
f 283/1/6 284/1/6 287/1/6
f 284/4/6 285/4/6 288/4/6
f 287/1/6 284/1/6 288/1/6
f 285/1/6 286/1/6 289/1/6
f 288/4/6 285/4/6 289/4/6
f 289/1/6 286/1/6 290/1/6
f 291/1/6 292/1/6 295/1/6
f 292/4/6 293/4/6 296/4/6
f 295/1/6 292/1/6 296/1/6
f 293/1/6 294/1/6 297/1/6
f 296/4/6 293/4/6 297/4/6
f 297/1/6 294/1/6 298/1/6
f 299/1/6 300/1/6 303/1/6
f 300/4/6 301/4/6 304/4/6
f 303/1/6 300/1/6 304/1/6
f 301/1/6 302/1/6 305/1/6
f 304/4/6 301/4/6 305/4/6
f 305/1/6 302/1/6 306/1/6
f 307/1/6 308/1/6 311/1/6
f 308/4/6 309/4/6 312/4/6
f 311/1/6 308/1/6 312/1/6
f 309/1/6 310/1/6 313/1/6
f 312/4/6 309/4/6 313/4/6
f 313/1/6 310/1/6 314/1/6
f 315/1/6 316/1/6 319/1/6
f 316/4/6 317/4/6 320/4/6
f 319/1/6 316/1/6 320/1/6
f 317/1/6 318/1/6 321/1/6
f 320/4/6 317/4/6 321/4/6
f 321/1/6 318/1/6 322/1/6
f 323/1/6 324/1/6 327/1/6
f 324/4/6 325/4/6 328/4/6
f 327/1/6 324/1/6 328/1/6
f 325/1/6 326/1/6 329/1/6
f 328/4/6 325/4/6 329/4/6
f 329/1/6 326/1/6 330/1/6
f 331/1/6 332/1/6 335/1/6
f 332/4/6 333/4/6 336/4/6
f 335/1/6 332/1/6 336/1/6
f 333/1/6 334/1/6 337/1/6
f 336/4/6 333/4/6 337/4/6
f 337/1/6 334/1/6 338/1/6
f 339/1/6 340/1/6 343/1/6
f 340/4/6 341/4/6 344/4/6
f 343/1/6 340/1/6 344/1/6
f 341/1/6 342/1/6 345/1/6
f 344/4/6 341/4/6 345/4/6
f 345/1/6 342/1/6 346/1/6
f 347/1/6 348/1/6 351/1/6
f 348/4/6 349/4/6 352/4/6
f 351/1/6 348/1/6 352/1/6
f 349/1/6 350/1/6 353/1/6
f 352/4/6 349/4/6 353/4/6
f 353/1/6 350/1/6 354/1/6
f 355/1/6 356/1/6 359/1/6
f 356/4/6 357/4/6 360/4/6
f 359/1/6 356/1/6 360/1/6
f 357/1/6 358/1/6 361/1/6
f 360/4/6 357/4/6 361/4/6
f 361/1/6 358/1/6 362/1/6
f 363/1/6 364/1/6 367/1/6
f 364/4/6 365/4/6 368/4/6
f 367/1/6 364/1/6 368/1/6
f 365/1/6 366/1/6 369/1/6
f 368/4/6 365/4/6 369/4/6
f 369/1/6 366/1/6 370/1/6
f 371/1/6 372/1/6 375/1/6
f 372/4/6 373/4/6 376/4/6
f 375/1/6 372/1/6 376/1/6
f 373/1/6 374/1/6 377/1/6
f 376/4/6 373/4/6 377/4/6
f 377/1/6 374/1/6 378/1/6
f 379/1/6 380/1/6 383/1/6
f 380/4/6 381/4/6 384/4/6
f 383/1/6 380/1/6 384/1/6
f 381/1/6 382/1/6 385/1/6
f 384/4/6 381/4/6 385/4/6
f 385/1/6 382/1/6 386/1/6
f 387/1/6 388/1/6 389/1/6
f 389/1/6 388/1/6 390/1/6
