# MagicaVoxel @ Ephtracy

# group
o 

# material
mtllib tree.mtl
usemtl palette

# normals
vn -1 0 0
vn 1 0 0
vn 0 0 1
vn 0 0 -1
vn 0 -1 0
vn 0 1 0

# texcoords
vt 0.970703 0.5
vt 0.974609 0.5
vt 0.978516 0.5

# verts
v -1 2.4 0.8
v -1 2.4 -0.8
v -1 4 0.8
v -1 4 -0.8
v -0.4 1.8 0.1
v -0.4 1.8 -0.1
v -0.4 2.4 0.1
v -0.4 2.4 -0.1
v -0.3 0 0.2
v -0.3 0 -0.2
v -0.3 0.1 0.2
v -0.3 0.1 -0.2
v -0.3 1.7 0.2
v -0.3 1.7 -0.2
v -0.3 1.8 0.1
v -0.3 1.8 -0.1
v -0.3 2.4 0.2
v -0.3 2.4 0.1
v -0.3 2.4 -0.1
v -0.3 2.4 -0.2
v -0.2 0 0.3
v -0.2 0 0.2
v -0.2 0 -0.2
v -0.2 0 -0.3
v -0.2 0.1 0.3
v -0.2 0.1 0.2
v -0.2 0.1 -0.2
v -0.2 0.1 -0.3
v -0.2 1.7 0.2
v -0.2 1.7 -0.2
v -0.2 1.9 0.6
v -0.2 1.9 0.2
v -0.2 1.9 -0.2
v -0.2 1.9 -0.6
v -0.2 2.4 0.6
v -0.2 2.4 0.2
v -0.2 2.4 -0.2
v -0.2 2.4 -0.6
v 0.2 0 0.3
v 0.2 0 0.2
v 0.2 0 -0.2
v 0.2 0 -0.3
v 0.2 0.1 0.3
v 0.2 0.1 0.2
v 0.2 0.1 -0.2
v 0.2 0.1 -0.3
v 0.2 1.7 0.2
v 0.2 1.7 -0.2
v 0.3 0 0.2
v 0.3 0 -0.2
v 0.3 0.1 0.2
v 0.3 0.1 -0.2
v 0.3 1.7 0.2
v 0.3 1.7 -0.2
v 0.3 1.8 0.1
v 0.3 1.8 -0.1
v 0.3 1.9 0.2
v 0.3 1.9 0.1
v 0.3 1.9 -0.1
v 0.3 1.9 -0.2
v 0.5 1.8 0.1
v 0.5 1.8 -0.1
v 0.5 1.9 0.1
v 0.5 1.9 -0.1
v 0.5 2.4 0.8
v 0.5 2.4 0.6
v 0.5 2.4 -0.6
v 0.5 2.4 -0.8
v 0.5 3 0.6
v 0.5 3 -0.6
v 0.5 4 0.8
v 0.5 4 -0.8
v 1 1.9 0.6
v 1 1.9 -0.6
v 1 3 0.6
v 1 3 -0.6
v -1 2.4 0.8
v -1 4 0.8
v 0.5 2.4 0.8
v 0.5 4 0.8
v -0.2 1.9 0.6
v -0.2 2.4 0.6
v 0.5 2.4 0.6
v 0.5 3 0.6
v 1 1.9 0.6
v 1 3 0.6
v -0.2 0 0.3
v -0.2 0.1 0.3
v 0.2 0 0.3
v 0.2 0.1 0.3
v -0.3 0 0.2
v -0.3 0.1 0.2
v -0.3 1.7 0.2
v -0.3 2.4 0.2
v -0.2 0 0.2
v -0.2 0.1 0.2
v -0.2 1.7 0.2
v -0.2 1.9 0.2
v -0.2 2.4 0.2
v 0 1.9 0.2
v 0.2 0 0.2
v 0.2 0.1 0.2
v 0.2 1.7 0.2
v 0.3 0 0.2
v 0.3 0.1 0.2
v 0.3 1.7 0.2
v 0.3 1.9 0.2
v -0.4 1.8 0.1
v -0.4 2.4 0.1
v -0.3 1.8 0.1
v -0.3 2.4 0.1
v 0.3 1.8 0.1
v 0.3 1.9 0.1
v 0.5 1.8 0.1
v 0.5 1.9 0.1
v -0.4 1.8 -0.1
v -0.4 2.4 -0.1
v -0.3 1.8 -0.1
v -0.3 2.4 -0.1
v 0.3 1.8 -0.1
v 0.3 1.9 -0.1
v 0.5 1.8 -0.1
v 0.5 1.9 -0.1
v -0.3 0 -0.2
v -0.3 0.1 -0.2
v -0.3 1.7 -0.2
v -0.3 2.4 -0.2
v -0.2 0 -0.2
v -0.2 0.1 -0.2
v -0.2 1.7 -0.2
v -0.2 1.9 -0.2
v -0.2 2.4 -0.2
v 0 1.9 -0.2
v 0.2 0 -0.2
v 0.2 0.1 -0.2
v 0.2 1.7 -0.2
v 0.3 0 -0.2
v 0.3 0.1 -0.2
v 0.3 1.7 -0.2
v 0.3 1.9 -0.2
v -0.2 0 -0.3
v -0.2 0.1 -0.3
v 0.2 0 -0.3
v 0.2 0.1 -0.3
v -0.2 1.9 -0.6
v -0.2 2.4 -0.6
v 0.5 2.4 -0.6
v 0.5 3 -0.6
v 1 1.9 -0.6
v 1 3 -0.6
v -1 2.4 -0.8
v -1 4 -0.8
v 0.5 2.4 -0.8
v 0.5 4 -0.8
v -0.2 0 0.3
v 0.2 0 0.3
v -0.3 0 0.2
v -0.2 0 0.2
v 0.2 0 0.2
v 0.3 0 0.2
v -0.3 0 -0.2
v -0.2 0 -0.2
v 0.2 0 -0.2
v 0.3 0 -0.2
v -0.2 0 -0.3
v 0.2 0 -0.3
v -0.3 1.7 0.2
v -0.2 1.7 0.2
v 0.2 1.7 0.2
v 0.3 1.7 0.2
v -0.3 1.7 -0.2
v -0.2 1.7 -0.2
v 0.2 1.7 -0.2
v 0.3 1.7 -0.2
v -0.4 1.8 0.1
v -0.3 1.8 0.1
v 0.3 1.8 0.1
v 0.5 1.8 0.1
v -0.4 1.8 -0.1
v -0.3 1.8 -0.1
v 0.3 1.8 -0.1
v 0.5 1.8 -0.1
v -0.2 1.9 0.6
v 1 1.9 0.6
v 0 1.9 0.3
v 0.8 1.9 0.3
v -0.2 1.9 0.2
v 0 1.9 0.2
v 0.3 1.9 0.2
v 0.3 1.9 0.1
v 0.5 1.9 0.1
v 0.3 1.9 -0.1
v 0.5 1.9 -0.1
v -0.2 1.9 -0.2
v 0 1.9 -0.2
v 0.3 1.9 -0.2
v 0 1.9 -0.4
v 0.8 1.9 -0.4
v -0.2 1.9 -0.6
v 1 1.9 -0.6
v -1 2.4 0.8
v 0.5 2.4 0.8
v -0.2 2.4 0.6
v 0.5 2.4 0.6
v -0.3 2.4 0.2
v -0.2 2.4 0.2
v -0.4 2.4 0.1
v -0.3 2.4 0.1
v -0.4 2.4 -0.1
v -0.3 2.4 -0.1
v -0.3 2.4 -0.2
v -0.2 2.4 -0.2
v -0.2 2.4 -0.6
v 0.5 2.4 -0.6
v -1 2.4 -0.8
v 0.5 2.4 -0.8
v -0.2 0.1 0.3
v 0.2 0.1 0.3
v -0.3 0.1 0.2
v -0.2 0.1 0.2
v 0.2 0.1 0.2
v 0.3 0.1 0.2
v -0.3 0.1 -0.2
v -0.2 0.1 -0.2
v 0.2 0.1 -0.2
v 0.3 0.1 -0.2
v -0.2 0.1 -0.3
v 0.2 0.1 -0.3
v 0.5 3 0.6
v 1 3 0.6
v 0.5 3 -0.6
v 1 3 -0.6
v -1 4 0.8
v 0.5 4 0.8
v -1 4 -0.8
v 0.5 4 -0.8

# faces
f 3/3/1 2/3/1 1/3/1
f 4/3/1 2/3/1 3/3/1
f 7/1/1 6/1/1 5/1/1
f 8/1/1 6/1/1 7/1/1
f 11/1/1 10/1/1 9/1/1
f 12/1/1 10/1/1 11/1/1
f 15/1/1 14/1/1 13/1/1
f 16/1/1 14/1/1 15/1/1
f 17/1/1 15/1/1 13/1/1
f 18/1/1 15/1/1 17/1/1
f 19/1/1 14/1/1 16/1/1
f 20/1/1 14/1/1 19/1/1
f 25/1/1 22/1/1 21/1/1
f 26/1/1 22/1/1 25/1/1
f 27/1/1 24/1/1 23/1/1
f 28/1/1 24/1/1 27/1/1
f 29/1/1 27/1/1 26/1/1
f 30/1/1 27/1/1 29/1/1
f 35/3/1 32/3/1 31/3/1
f 36/3/1 32/3/1 35/3/1
f 37/3/1 34/3/1 33/3/1
f 38/3/1 34/3/1 37/3/1
f 39/1/2 40/1/2 43/1/2
f 43/1/2 40/1/2 44/1/2
f 41/1/2 42/1/2 45/1/2
f 45/1/2 42/1/2 46/1/2
f 44/1/2 45/1/2 47/1/2
f 47/1/2 45/1/2 48/1/2
f 49/1/2 50/1/2 51/1/2
f 51/1/2 50/1/2 52/1/2
f 53/1/2 54/1/2 55/1/2
f 55/1/2 54/1/2 56/1/2
f 53/1/2 55/1/2 57/1/2
f 57/1/2 55/1/2 58/1/2
f 56/1/2 54/1/2 59/1/2
f 59/1/2 54/1/2 60/1/2
f 61/1/2 62/1/2 63/1/2
f 63/1/2 62/1/2 64/1/2
f 65/3/2 66/3/2 69/3/2
f 67/3/2 68/3/2 70/3/2
f 65/3/2 69/3/2 71/3/2
f 69/3/2 70/3/2 71/3/2
f 70/3/2 68/3/2 72/3/2
f 71/3/2 70/3/2 72/3/2
f 73/3/2 74/3/2 75/3/2
f 75/3/2 74/3/2 76/3/2
f 79/3/3 78/3/3 77/3/3
f 80/3/3 78/3/3 79/3/3
f 83/3/3 82/3/3 81/3/3
f 85/3/3 83/3/3 81/3/3
f 85/3/3 84/3/3 83/3/3
f 86/3/3 84/3/3 85/3/3
f 89/1/3 88/1/3 87/1/3
f 90/1/3 88/1/3 89/1/3
f 95/1/3 92/1/3 91/1/3
f 96/1/3 92/1/3 95/1/3
f 97/1/3 94/1/3 93/1/3
f 98/1/3 94/1/3 97/1/3
f 99/1/3 94/1/3 98/1/3
f 100/1/3 97/1/3 96/1/3
f 100/1/3 98/1/3 97/1/3
f 102/1/3 100/1/3 96/1/3
f 103/1/3 100/1/3 102/1/3
f 104/1/3 102/1/3 101/1/3
f 105/1/3 102/1/3 104/1/3
f 106/1/3 100/1/3 103/1/3
f 107/1/3 100/1/3 106/1/3
f 110/1/3 109/1/3 108/1/3
f 111/1/3 109/1/3 110/1/3
f 114/1/3 113/1/3 112/1/3
f 115/1/3 113/1/3 114/1/3
f 116/1/4 117/1/4 118/1/4
f 118/1/4 117/1/4 119/1/4
f 120/1/4 121/1/4 122/1/4
f 122/1/4 121/1/4 123/1/4
f 124/1/4 125/1/4 128/1/4
f 128/1/4 125/1/4 129/1/4
f 126/1/4 127/1/4 130/1/4
f 130/1/4 127/1/4 131/1/4
f 131/1/4 127/1/4 132/1/4
f 129/1/4 130/1/4 133/1/4
f 130/1/4 131/1/4 133/1/4
f 129/1/4 133/1/4 135/1/4
f 135/1/4 133/1/4 136/1/4
f 134/1/4 135/1/4 137/1/4
f 137/1/4 135/1/4 138/1/4
f 136/1/4 133/1/4 139/1/4
f 139/1/4 133/1/4 140/1/4
f 141/1/4 142/1/4 143/1/4
f 143/1/4 142/1/4 144/1/4
f 145/3/4 146/3/4 147/3/4
f 145/3/4 147/3/4 149/3/4
f 147/3/4 148/3/4 149/3/4
f 149/3/4 148/3/4 150/3/4
f 151/3/4 152/3/4 153/3/4
f 153/3/4 152/3/4 154/3/4
f 158/1/5 156/1/5 155/1/5
f 159/1/5 156/1/5 158/1/5
f 161/1/5 158/1/5 157/1/5
f 161/1/5 160/1/5 159/1/5
f 161/1/5 159/1/5 158/1/5
f 162/1/5 160/1/5 161/1/5
f 163/1/5 160/1/5 162/1/5
f 164/1/5 160/1/5 163/1/5
f 165/1/5 163/1/5 162/1/5
f 166/1/5 163/1/5 165/1/5
f 171/1/5 168/1/5 167/1/5
f 172/1/5 168/1/5 171/1/5
f 173/1/5 170/1/5 169/1/5
f 174/1/5 170/1/5 173/1/5
f 179/1/5 176/1/5 175/1/5
f 180/1/5 176/1/5 179/1/5
f 181/1/5 178/1/5 177/1/5
f 182/1/5 178/1/5 181/1/5
f 185/3/5 184/3/5 183/3/5
f 186/3/5 184/3/5 185/3/5
f 187/3/5 185/3/5 183/3/5
f 188/2/5 186/2/5 185/2/5
f 188/3/5 185/3/5 187/3/5
f 189/2/5 186/2/5 188/2/5
f 190/2/5 186/2/5 189/2/5
f 191/2/5 186/2/5 190/2/5
f 193/2/5 186/2/5 191/2/5
f 196/2/5 193/2/5 192/2/5
f 197/3/5 195/3/5 194/3/5
f 197/2/5 196/2/5 195/2/5
f 198/3/5 184/3/5 186/3/5
f 198/2/5 196/2/5 197/2/5
f 198/2/5 186/2/5 193/2/5
f 198/2/5 193/2/5 196/2/5
f 199/3/5 197/3/5 194/3/5
f 199/3/5 198/3/5 197/3/5
f 200/3/5 184/3/5 198/3/5
f 200/3/5 198/3/5 199/3/5
f 203/3/5 202/3/5 201/3/5
f 204/3/5 202/3/5 203/3/5
f 205/3/5 203/3/5 201/3/5
f 206/3/5 203/3/5 205/3/5
f 207/3/5 205/3/5 201/3/5
f 208/3/5 205/3/5 207/3/5
f 209/3/5 207/3/5 201/3/5
f 211/3/5 210/3/5 209/3/5
f 213/3/5 212/3/5 211/3/5
f 215/3/5 213/3/5 211/3/5
f 215/3/5 214/3/5 213/3/5
f 215/3/5 209/3/5 201/3/5
f 215/3/5 211/3/5 209/3/5
f 216/3/5 214/3/5 215/3/5
f 217/1/6 218/1/6 220/1/6
f 220/1/6 218/1/6 221/1/6
f 219/1/6 220/1/6 223/1/6
f 223/1/6 220/1/6 224/1/6
f 221/1/6 222/1/6 225/1/6
f 225/1/6 222/1/6 226/1/6
f 224/1/6 225/1/6 227/1/6
f 227/1/6 225/1/6 228/1/6
f 229/3/6 230/3/6 231/3/6
f 231/3/6 230/3/6 232/3/6
f 233/3/6 234/3/6 235/3/6
f 235/3/6 234/3/6 236/3/6
