# MagicaVoxel @ Ephtracy

# group
o 

# material
mtllib Pine.mtl
usemtl palette

# normals
vn -1 0 0
vn 1 0 0
vn 0 0 1
vn 0 0 -1
vn 0 -1 0
vn 0 1 0

# texcoords
vt 0.970703 0.5
vt 0.974609 0.5

# verts
v -1 0.6 1
v -1 0.6 -1
v -1 1.2 1
v -1 1.2 -1
v -0.8 1.2 0.8
v -0.8 1.2 -0.8
v -0.8 1.6 0.8
v -0.8 1.6 -0.8
v -0.7 1.6 0.7
v -0.7 1.6 -0.7
v -0.7 1.9 0.7
v -0.7 1.9 -0.7
v -0.5 1.9 0.5
v -0.5 1.9 -0.5
v -0.5 2.2 0.5
v -0.5 2.2 -0.5
v -0.4 2.2 0.4
v -0.4 2.2 -0.4
v -0.4 2.5 0.4
v -0.4 2.5 -0.4
v -0.3 2.5 0.3
v -0.3 2.5 -0.3
v -0.3 2.8 0.3
v -0.3 2.8 -0.3
v -0.2 0 0.2
v -0.2 0 -0.2
v -0.2 0.6 0.2
v -0.2 0.6 -0.2
v -0.2 2.8 0.2
v -0.2 2.8 -0.2
v -0.2 3 0.2
v -0.2 3 -0.2
v -0.1 3 0.1
v -0.1 3 -0.1
v -0.1 3.2 0.1
v -0.1 3.2 -0.1
v 0.1 3 0.1
v 0.1 3 -0.1
v 0.1 3.2 0.1
v 0.1 3.2 -0.1
v 0.2 0 0.2
v 0.2 0 -0.2
v 0.2 0.6 0.2
v 0.2 0.6 -0.2
v 0.2 2.8 0.2
v 0.2 2.8 -0.2
v 0.2 3 0.2
v 0.2 3 -0.2
v 0.3 2.5 0.3
v 0.3 2.5 -0.3
v 0.3 2.8 0.3
v 0.3 2.8 -0.3
v 0.4 2.2 0.4
v 0.4 2.2 -0.4
v 0.4 2.5 0.4
v 0.4 2.5 -0.4
v 0.5 1.9 0.5
v 0.5 1.9 -0.5
v 0.5 2.2 0.5
v 0.5 2.2 -0.5
v 0.7 1.6 0.7
v 0.7 1.6 -0.7
v 0.7 1.9 0.7
v 0.7 1.9 -0.7
v 0.8 1.2 0.8
v 0.8 1.2 -0.8
v 0.8 1.6 0.8
v 0.8 1.6 -0.8
v 1 0.6 1
v 1 0.6 -1
v 1 1.2 1
v 1 1.2 -1
v -1 0.6 1
v -1 1.2 1
v 1 0.6 1
v 1 1.2 1
v -0.8 1.2 0.8
v -0.8 1.6 0.8
v 0.8 1.2 0.8
v 0.8 1.6 0.8
v -0.7 1.6 0.7
v -0.7 1.9 0.7
v 0.7 1.6 0.7
v 0.7 1.9 0.7
v -0.5 1.9 0.5
v -0.5 2.2 0.5
v 0.5 1.9 0.5
v 0.5 2.2 0.5
v -0.4 2.2 0.4
v -0.4 2.5 0.4
v 0.4 2.2 0.4
v 0.4 2.5 0.4
v -0.3 2.5 0.3
v -0.3 2.8 0.3
v 0.3 2.5 0.3
v 0.3 2.8 0.3
v -0.2 0 0.2
v -0.2 0.6 0.2
v -0.2 2.8 0.2
v -0.2 3 0.2
v 0.2 0 0.2
v 0.2 0.6 0.2
v 0.2 2.8 0.2
v 0.2 3 0.2
v -0.1 3 0.1
v -0.1 3.2 0.1
v 0.1 3 0.1
v 0.1 3.2 0.1
v -0.1 3 -0.1
v -0.1 3.2 -0.1
v 0.1 3 -0.1
v 0.1 3.2 -0.1
v -0.2 0 -0.2
v -0.2 0.6 -0.2
v -0.2 2.8 -0.2
v -0.2 3 -0.2
v 0.2 0 -0.2
v 0.2 0.6 -0.2
v 0.2 2.8 -0.2
v 0.2 3 -0.2
v -0.3 2.5 -0.3
v -0.3 2.8 -0.3
v 0.3 2.5 -0.3
v 0.3 2.8 -0.3
v -0.4 2.2 -0.4
v -0.4 2.5 -0.4
v 0.4 2.2 -0.4
v 0.4 2.5 -0.4
v -0.5 1.9 -0.5
v -0.5 2.2 -0.5
v 0.5 1.9 -0.5
v 0.5 2.2 -0.5
v -0.7 1.6 -0.7
v -0.7 1.9 -0.7
v 0.7 1.6 -0.7
v 0.7 1.9 -0.7
v -0.8 1.2 -0.8
v -0.8 1.6 -0.8
v 0.8 1.2 -0.8
v 0.8 1.6 -0.8
v -1 0.6 -1
v -1 1.2 -1
v 1 0.6 -1
v 1 1.2 -1
v -0.2 0 0.2
v 0.2 0 0.2
v -0.2 0 -0.2
v 0.2 0 -0.2
v -1 0.6 1
v 1 0.6 1
v -0.2 0.6 0.2
v 0.2 0.6 0.2
v -0.2 0.6 -0.2
v 0.2 0.6 -0.2
v -1 0.6 -1
v 1 0.6 -1
v -1 1.2 1
v 1 1.2 1
v -0.8 1.2 0.8
v 0.8 1.2 0.8
v -0.8 1.2 -0.8
v 0.8 1.2 -0.8
v -1 1.2 -1
v 1 1.2 -1
v -0.8 1.6 0.8
v 0.8 1.6 0.8
v -0.7 1.6 0.7
v 0.7 1.6 0.7
v -0.7 1.6 -0.7
v 0.7 1.6 -0.7
v -0.8 1.6 -0.8
v 0.8 1.6 -0.8
v -0.7 1.9 0.7
v 0.7 1.9 0.7
v -0.5 1.9 0.5
v 0.5 1.9 0.5
v -0.5 1.9 -0.5
v 0.5 1.9 -0.5
v -0.7 1.9 -0.7
v 0.7 1.9 -0.7
v -0.5 2.2 0.5
v 0.5 2.2 0.5
v -0.4 2.2 0.4
v 0.4 2.2 0.4
v -0.4 2.2 -0.4
v 0.4 2.2 -0.4
v -0.5 2.2 -0.5
v 0.5 2.2 -0.5
v -0.4 2.5 0.4
v 0.4 2.5 0.4
v -0.3 2.5 0.3
v 0.3 2.5 0.3
v -0.3 2.5 -0.3
v 0.3 2.5 -0.3
v -0.4 2.5 -0.4
v 0.4 2.5 -0.4
v -0.3 2.8 0.3
v 0.3 2.8 0.3
v -0.2 2.8 0.2
v 0.2 2.8 0.2
v -0.2 2.8 -0.2
v 0.2 2.8 -0.2
v -0.3 2.8 -0.3
v 0.3 2.8 -0.3
v -0.2 3 0.2
v 0.2 3 0.2
v -0.1 3 0.1
v 0.1 3 0.1
v -0.1 3 -0.1
v 0.1 3 -0.1
v -0.2 3 -0.2
v 0.2 3 -0.2
v -0.1 3.2 0.1
v 0.1 3.2 0.1
v -0.1 3.2 -0.1
v 0.1 3.2 -0.1

# faces
f 3/2/1 2/2/1 1/2/1
f 4/2/1 2/2/1 3/2/1
f 7/2/1 6/2/1 5/2/1
f 8/2/1 6/2/1 7/2/1
f 11/2/1 10/2/1 9/2/1
f 12/2/1 10/2/1 11/2/1
f 15/2/1 14/2/1 13/2/1
f 16/2/1 14/2/1 15/2/1
f 19/2/1 18/2/1 17/2/1
f 20/2/1 18/2/1 19/2/1
f 23/2/1 22/2/1 21/2/1
f 24/2/1 22/2/1 23/2/1
f 27/1/1 26/1/1 25/1/1
f 28/1/1 26/1/1 27/1/1
f 31/2/1 30/2/1 29/2/1
f 32/2/1 30/2/1 31/2/1
f 35/2/1 34/2/1 33/2/1
f 36/2/1 34/2/1 35/2/1
f 37/2/2 38/2/2 39/2/2
f 39/2/2 38/2/2 40/2/2
f 41/1/2 42/1/2 43/1/2
f 43/1/2 42/1/2 44/1/2
f 45/2/2 46/2/2 47/2/2
f 47/2/2 46/2/2 48/2/2
f 49/2/2 50/2/2 51/2/2
f 51/2/2 50/2/2 52/2/2
f 53/2/2 54/2/2 55/2/2
f 55/2/2 54/2/2 56/2/2
f 57/2/2 58/2/2 59/2/2
f 59/2/2 58/2/2 60/2/2
f 61/2/2 62/2/2 63/2/2
f 63/2/2 62/2/2 64/2/2
f 65/2/2 66/2/2 67/2/2
f 67/2/2 66/2/2 68/2/2
f 69/2/2 70/2/2 71/2/2
f 71/2/2 70/2/2 72/2/2
f 75/2/3 74/2/3 73/2/3
f 76/2/3 74/2/3 75/2/3
f 79/2/3 78/2/3 77/2/3
f 80/2/3 78/2/3 79/2/3
f 83/2/3 82/2/3 81/2/3
f 84/2/3 82/2/3 83/2/3
f 87/2/3 86/2/3 85/2/3
f 88/2/3 86/2/3 87/2/3
f 91/2/3 90/2/3 89/2/3
f 92/2/3 90/2/3 91/2/3
f 95/2/3 94/2/3 93/2/3
f 96/2/3 94/2/3 95/2/3
f 101/1/3 98/1/3 97/1/3
f 102/1/3 98/1/3 101/1/3
f 103/2/3 100/2/3 99/2/3
f 104/2/3 100/2/3 103/2/3
f 107/2/3 106/2/3 105/2/3
f 108/2/3 106/2/3 107/2/3
f 109/2/4 110/2/4 111/2/4
f 111/2/4 110/2/4 112/2/4
f 113/1/4 114/1/4 117/1/4
f 117/1/4 114/1/4 118/1/4
f 115/2/4 116/2/4 119/2/4
f 119/2/4 116/2/4 120/2/4
f 121/2/4 122/2/4 123/2/4
f 123/2/4 122/2/4 124/2/4
f 125/2/4 126/2/4 127/2/4
f 127/2/4 126/2/4 128/2/4
f 129/2/4 130/2/4 131/2/4
f 131/2/4 130/2/4 132/2/4
f 133/2/4 134/2/4 135/2/4
f 135/2/4 134/2/4 136/2/4
f 137/2/4 138/2/4 139/2/4
f 139/2/4 138/2/4 140/2/4
f 141/2/4 142/2/4 143/2/4
f 143/2/4 142/2/4 144/2/4
f 147/1/5 146/1/5 145/1/5
f 148/1/5 146/1/5 147/1/5
f 151/2/5 150/2/5 149/2/5
f 152/2/5 150/2/5 151/2/5
f 153/2/5 151/2/5 149/2/5
f 154/2/5 150/2/5 152/2/5
f 155/2/5 153/2/5 149/2/5
f 155/2/5 154/2/5 153/2/5
f 156/2/5 150/2/5 154/2/5
f 156/2/5 154/2/5 155/2/5
f 157/2/6 158/2/6 159/2/6
f 159/2/6 158/2/6 160/2/6
f 157/2/6 159/2/6 161/2/6
f 160/2/6 158/2/6 162/2/6
f 157/2/6 161/2/6 163/2/6
f 161/2/6 162/2/6 163/2/6
f 162/2/6 158/2/6 164/2/6
f 163/2/6 162/2/6 164/2/6
f 165/2/6 166/2/6 167/2/6
f 167/2/6 166/2/6 168/2/6
f 165/2/6 167/2/6 169/2/6
f 168/2/6 166/2/6 170/2/6
f 165/2/6 169/2/6 171/2/6
f 169/2/6 170/2/6 171/2/6
f 170/2/6 166/2/6 172/2/6
f 171/2/6 170/2/6 172/2/6
f 173/2/6 174/2/6 175/2/6
f 175/2/6 174/2/6 176/2/6
f 173/2/6 175/2/6 177/2/6
f 176/2/6 174/2/6 178/2/6
f 173/2/6 177/2/6 179/2/6
f 177/2/6 178/2/6 179/2/6
f 178/2/6 174/2/6 180/2/6
f 179/2/6 178/2/6 180/2/6
f 181/2/6 182/2/6 183/2/6
f 183/2/6 182/2/6 184/2/6
f 181/2/6 183/2/6 185/2/6
f 184/2/6 182/2/6 186/2/6
f 181/2/6 185/2/6 187/2/6
f 185/2/6 186/2/6 187/2/6
f 186/2/6 182/2/6 188/2/6
f 187/2/6 186/2/6 188/2/6
f 189/2/6 190/2/6 191/2/6
f 191/2/6 190/2/6 192/2/6
f 189/2/6 191/2/6 193/2/6
f 192/2/6 190/2/6 194/2/6
f 189/2/6 193/2/6 195/2/6
f 193/2/6 194/2/6 195/2/6
f 194/2/6 190/2/6 196/2/6
f 195/2/6 194/2/6 196/2/6
f 197/2/6 198/2/6 199/2/6
f 199/2/6 198/2/6 200/2/6
f 197/2/6 199/2/6 201/2/6
f 200/2/6 198/2/6 202/2/6
f 197/2/6 201/2/6 203/2/6
f 201/2/6 202/2/6 203/2/6
f 202/2/6 198/2/6 204/2/6
f 203/2/6 202/2/6 204/2/6
f 205/2/6 206/2/6 207/2/6
f 207/2/6 206/2/6 208/2/6
f 205/2/6 207/2/6 209/2/6
f 208/2/6 206/2/6 210/2/6
f 205/2/6 209/2/6 211/2/6
f 209/2/6 210/2/6 211/2/6
f 210/2/6 206/2/6 212/2/6
f 211/2/6 210/2/6 212/2/6
f 213/2/6 214/2/6 215/2/6
f 215/2/6 214/2/6 216/2/6
