# MagicaVoxel @ Ephtracy

# group
o 

# material
mtllib StreetLight.mtl
usemtl palette

# normals
vn -1 0 0
vn 1 0 0
vn 0 0 1
vn 0 0 -1
vn 0 -1 0
vn 0 1 0

# texcoords
vt 0.00585938 0.5
vt 0.990234 0.5
vt 0.994141 0.5

# verts
v -1.2 3.8 0.1
v -1.2 3.8 -0.1
v -1.2 3.9 0.1
v -1.2 3.9 -0.1
v -1.2 4 0.1
v -1.2 4 -0.1
v 0.2 0 0.5
v 0.2 0 -0.5
v 0.2 0.1 0.5
v 0.2 0.1 -0.5
v 0.4 3.8 0.1
v 0.4 3.8 -0.1
v 0.4 3.9 0.1
v 0.4 3.9 -0.1
v 0.5 0.1 0.2
v 0.5 0.1 -0.2
v 0.5 0.7 0.2
v 0.5 0.7 -0.2
v 0.5 3.7 0.1
v 0.5 3.7 -0.1
v 0.5 3.8 0.1
v 0.5 3.8 -0.1
v 0.6 0.7 0.1
v 0.6 0.7 -0.1
v 0.6 3.7 0.1
v 0.6 3.7 -0.1
v -0.5 3.8 0.1
v -0.5 3.8 -0.1
v -0.5 3.9 0.1
v -0.5 3.9 -0.1
v 0.7 3.9 0.1
v 0.7 3.9 -0.1
v 0.7 4 0.1
v 0.7 4 -0.1
v 0.8 0.7 0.1
v 0.8 0.7 -0.1
v 0.8 3.9 0.1
v 0.8 3.9 -0.1
v 0.9 0.1 0.2
v 0.9 0.1 -0.2
v 0.9 0.7 0.2
v 0.9 0.7 -0.2
v 1.2 0 0.5
v 1.2 0 -0.5
v 1.2 0.1 0.5
v 1.2 0.1 -0.5
v 0.2 0 0.5
v 0.2 0.1 0.5
v 1.2 0 0.5
v 1.2 0.1 0.5
v 0.5 0.1 0.2
v 0.5 0.7 0.2
v 0.9 0.1 0.2
v 0.9 0.7 0.2
v -1.2 3.8 0.1
v -1.2 3.9 0.1
v -1.2 4 0.1
v -0.5 3.8 0.1
v -0.5 3.9 0.1
v 0.4 3.8 0.1
v 0.4 3.9 0.1
v 0.5 3.7 0.1
v 0.5 3.8 0.1
v 0.6 0.7 0.1
v 0.6 3.7 0.1
v 0.7 3.9 0.1
v 0.7 4 0.1
v 0.8 0.7 0.1
v 0.8 3.9 0.1
v -1.2 3.8 -0.1
v -1.2 3.9 -0.1
v -1.2 4 -0.1
v -0.5 3.8 -0.1
v -0.5 3.9 -0.1
v 0.4 3.8 -0.1
v 0.4 3.9 -0.1
v 0.5 3.7 -0.1
v 0.5 3.8 -0.1
v 0.6 0.7 -0.1
v 0.6 3.7 -0.1
v 0.7 3.9 -0.1
v 0.7 4 -0.1
v 0.8 0.7 -0.1
v 0.8 3.9 -0.1
v 0.5 0.1 -0.2
v 0.5 0.7 -0.2
v 0.9 0.1 -0.2
v 0.9 0.7 -0.2
v 0.2 0 -0.5
v 0.2 0.1 -0.5
v 1.2 0 -0.5
v 1.2 0.1 -0.5
v 0.2 0 0.5
v 1.2 0 0.5
v 0.2 0 -0.5
v 1.2 0 -0.5
v 0.5 3.7 0.1
v 0.6 3.7 0.1
v 0.5 3.7 -0.1
v 0.6 3.7 -0.1
v -1.2 3.8 0.1
v -0.5 3.8 0.1
v 0.4 3.8 0.1
v 0.5 3.8 0.1
v -1.2 3.8 -0.1
v -0.5 3.8 -0.1
v 0.4 3.8 -0.1
v 0.5 3.8 -0.1
v -0.5 3.9 0.1
v 0.4 3.9 0.1
v -0.5 3.9 -0.1
v 0.4 3.9 -0.1
v 0.2 0.1 0.5
v 1.2 0.1 0.5
v 0.5 0.1 0.2
v 0.9 0.1 0.2
v 0.5 0.1 -0.2
v 0.9 0.1 -0.2
v 0.2 0.1 -0.5
v 1.2 0.1 -0.5
v 0.5 0.7 0.2
v 0.9 0.7 0.2
v 0.6 0.7 0.1
v 0.8 0.7 0.1
v 0.6 0.7 -0.1
v 0.8 0.7 -0.1
v 0.5 0.7 -0.2
v 0.9 0.7 -0.2
v 0.7 3.9 0.1
v 0.8 3.9 0.1
v 0.7 3.9 -0.1
v 0.8 3.9 -0.1
v -1.2 4 0.1
v 0.7 4 0.1
v -1.2 4 -0.1
v 0.7 4 -0.1

# faces
f 3/1/1 2/1/1 1/1/1
f 4/1/1 2/1/1 3/1/1
f 5/2/1 4/2/1 3/2/1
f 6/2/1 4/2/1 5/2/1
f 9/3/1 8/3/1 7/3/1
f 10/3/1 8/3/1 9/3/1
f 13/2/1 12/2/1 11/2/1
f 14/2/1 12/2/1 13/2/1
f 17/2/1 16/2/1 15/2/1
f 18/2/1 16/2/1 17/2/1
f 21/2/1 20/2/1 19/2/1
f 22/2/1 20/2/1 21/2/1
f 25/2/1 24/2/1 23/2/1
f 26/2/1 24/2/1 25/2/1
f 27/1/2 28/1/2 29/1/2
f 29/1/2 28/1/2 30/1/2
f 31/2/2 32/2/2 33/2/2
f 33/2/2 32/2/2 34/2/2
f 35/2/2 36/2/2 37/2/2
f 37/2/2 36/2/2 38/2/2
f 39/2/2 40/2/2 41/2/2
f 41/2/2 40/2/2 42/2/2
f 43/3/2 44/3/2 45/3/2
f 45/3/2 44/3/2 46/3/2
f 49/3/3 48/3/3 47/3/3
f 50/3/3 48/3/3 49/3/3
f 53/2/3 52/2/3 51/2/3
f 54/2/3 52/2/3 53/2/3
f 58/1/3 56/1/3 55/1/3
f 59/2/3 57/2/3 56/2/3
f 59/1/3 56/1/3 58/1/3
f 61/2/3 57/2/3 59/2/3
f 63/2/3 61/2/3 60/2/3
f 65/2/3 63/2/3 62/2/3
f 66/2/3 57/2/3 61/2/3
f 66/2/3 65/2/3 64/2/3
f 66/2/3 63/2/3 65/2/3
f 66/2/3 61/2/3 63/2/3
f 67/2/3 57/2/3 66/2/3
f 68/2/3 66/2/3 64/2/3
f 69/2/3 66/2/3 68/2/3
f 70/1/4 71/1/4 73/1/4
f 71/2/4 72/2/4 74/2/4
f 73/1/4 71/1/4 74/1/4
f 74/2/4 72/2/4 76/2/4
f 75/2/4 76/2/4 78/2/4
f 77/2/4 78/2/4 80/2/4
f 76/2/4 72/2/4 81/2/4
f 79/2/4 80/2/4 81/2/4
f 80/2/4 78/2/4 81/2/4
f 78/2/4 76/2/4 81/2/4
f 81/2/4 72/2/4 82/2/4
f 79/2/4 81/2/4 83/2/4
f 83/2/4 81/2/4 84/2/4
f 85/2/4 86/2/4 87/2/4
f 87/2/4 86/2/4 88/2/4
f 89/3/4 90/3/4 91/3/4
f 91/3/4 90/3/4 92/3/4
f 95/3/5 94/3/5 93/3/5
f 96/3/5 94/3/5 95/3/5
f 99/2/5 98/2/5 97/2/5
f 100/2/5 98/2/5 99/2/5
f 105/1/5 102/1/5 101/1/5
f 106/1/5 102/1/5 105/1/5
f 107/2/5 104/2/5 103/2/5
f 108/2/5 104/2/5 107/2/5
f 111/2/5 110/2/5 109/2/5
f 112/2/5 110/2/5 111/2/5
f 113/3/6 114/3/6 115/3/6
f 115/3/6 114/3/6 116/3/6
f 113/3/6 115/3/6 117/3/6
f 116/3/6 114/3/6 118/3/6
f 113/3/6 117/3/6 119/3/6
f 117/3/6 118/3/6 119/3/6
f 118/3/6 114/3/6 120/3/6
f 119/3/6 118/3/6 120/3/6
f 121/2/6 122/2/6 123/2/6
f 123/2/6 122/2/6 124/2/6
f 121/2/6 123/2/6 125/2/6
f 124/2/6 122/2/6 126/2/6
f 121/2/6 125/2/6 127/2/6
f 125/2/6 126/2/6 127/2/6
f 126/2/6 122/2/6 128/2/6
f 127/2/6 126/2/6 128/2/6
f 129/2/6 130/2/6 131/2/6
f 131/2/6 130/2/6 132/2/6
f 133/2/6 134/2/6 135/2/6
f 135/2/6 134/2/6 136/2/6
