# MagicaVoxel @ Ephtracy

# group
o 

# material
mtllib Office1.mtl
usemtl palette

# normals
vn -1 0 0
vn 1 0 0
vn 0 0 1
vn 0 0 -1
vn 0 -1 0
vn 0 1 0

# texcoords
vt 0.728516 0.5
vt 0.958984 0.5
vt 0.962891 0.5
vt 0.970703 0.5
vt 0.982422 0.5
vt 0.990234 0.5

# verts
v -2.3 1.5 4
v -2.3 1.5 2.1
v -2.3 2 4
v -2.3 2 2.1
v -2.3 2.3 4
v -2.3 2.3 2.1
v -2.3 2.8 4
v -2.3 2.8 2.1
v -2.3 3.1 4
v -2.3 3.1 2.1
v -2.3 3.6 4
v -2.3 3.6 2.1
v -2 0 4.2
v -2 0 -4.2
v -2 0.1 4.2
v -2 0.1 -4.2
v -1.8 0.1 4
v -1.8 0.1 3.2
v -1.8 0.1 2.6
v -1.8 0.1 -4
v -1.8 0.2 4
v -1.8 0.2 3.3
v -1.8 0.2 2.5
v -1.8 0.2 -4
v -1.8 1 3.2
v -1.8 1 2.6
v -1.8 1 1.9
v -1.8 1 -4
v -1.8 1.1 3.3
v -1.8 1.1 2.5
v -1.8 1.1 1.8
v -1.8 1.1 -4
v -1.8 1.4 4
v -1.8 1.4 2.1
v -1.8 1.5 4
v -1.8 1.5 2.1
v -1.8 1.6 3.9
v -1.8 1.6 2.2
v -1.8 1.6 1.9
v -1.8 1.6 1.8
v -1.8 1.6 -4
v -1.8 1.7 1.9
v -1.8 1.7 -4
v -1.8 1.8 1.8
v -1.8 1.8 -4
v -1.8 2 4
v -1.8 2 3.9
v -1.8 2 2.2
v -1.8 2 2.1
v -1.8 2.2 4
v -1.8 2.2 2.1
v -1.8 2.3 4
v -1.8 2.3 2.1
v -1.8 2.3 1.9
v -1.8 2.3 1.8
v -1.8 2.3 -4
v -1.8 2.4 3.9
v -1.8 2.4 2.2
v -1.8 2.4 1.9
v -1.8 2.4 -4
v -1.8 2.5 1.8
v -1.8 2.5 -4
v -1.8 2.8 4
v -1.8 2.8 3.9
v -1.8 2.8 2.2
v -1.8 2.8 2.1
v -1.8 3 4
v -1.8 3 2.1
v -1.8 3 1.9
v -1.8 3 1.8
v -1.8 3 -4
v -1.8 3.1 4
v -1.8 3.1 2.1
v -1.8 3.1 1.9
v -1.8 3.1 -4
v -1.8 3.2 3.9
v -1.8 3.2 2.2
v -1.8 3.2 1.8
v -1.8 3.2 -4
v -1.8 3.6 4
v -1.8 3.6 3.9
v -1.8 3.6 2.2
v -1.8 3.6 2.1
v -1.8 3.7 1.9
v -1.8 3.7 1.8
v -1.8 3.7 -4
v -1.8 4 4
v -1.8 4 -4
v -1.7 0.1 3.2
v -1.7 0.1 2.6
v -1.7 1 3.2
v -1.7 1 2.6
v -1.7 1.1 1.8
v -1.7 1.1 -3.9
v -1.7 1.6 1.8
v -1.7 1.6 -3.9
v -1.7 1.8 1.8
v -1.7 1.8 -3.9
v -1.7 2.3 1.8
v -1.7 2.3 -3.9
v -1.7 2.5 1.8
v -1.7 2.5 -3.9
v -1.7 3 1.8
v -1.7 3 -3.9
v -1.7 3.2 1.8
v -1.7 3.2 -3.9
v -1.7 3.7 1.8
v -1.7 3.7 -3.9
v 0.2 1.1 -3.9
v 0.2 1.1 -4
v 0.2 1.6 -3.9
v 0.2 1.6 -4
v 0.2 1.8 -3.9
v 0.2 1.8 -4
v 0.2 2.3 -3.9
v 0.2 2.3 -4
v 0.2 2.5 -3.9
v 0.2 2.5 -4
v 0.2 3 -3.9
v 0.2 3 -4
v 0.2 3.2 -3.9
v 0.2 3.2 -4
v 0.2 3.7 -3.9
v 0.2 3.7 -4
v -2.2 1.6 3.9
v -2.2 1.6 2.2
v -2.2 2 3.9
v -2.2 2 2.2
v -2.2 2.4 3.9
v -2.2 2.4 2.2
v -2.2 2.8 3.9
v -2.2 2.8 2.2
v -2.2 3.2 3.9
v -2.2 3.2 2.2
v -2.2 3.6 3.9
v -2.2 3.6 2.2
v -1.5 0 3.8
v -1.5 0 -3.8
v -1.5 1.1 -3.8
v -1.5 1.6 -3.8
v -1.5 1.8 -3.8
v -1.5 2.3 -3.8
v -1.5 2.5 -3.8
v -1.5 3 -3.8
v -1.5 3.2 -3.8
v -1.5 3.7 -3.8
v -1.5 3.9 3.8
v -1.5 3.9 -3.8
v 2.2 0 4.2
v 2.2 0 4
v 2.2 0 3.8
v 2.2 0 -3.8
v 2.2 0 -4
v 2.2 0 -4.2
v 2.2 0.1 4.2
v 2.2 0.1 4
v 2.2 0.1 3.9
v 2.2 0.1 -3.9
v 2.2 0.1 -4
v 2.2 0.1 -4.2
v 2.2 0.2 4
v 2.2 0.2 3.9
v 2.2 0.2 -3.9
v 2.2 0.2 -4
v 2.2 1.4 4
v 2.2 1.4 3.9
v 2.2 2 4
v 2.2 2 3.9
v 2.2 2.2 4
v 2.2 2.2 3.9
v 2.2 2.8 4
v 2.2 2.8 3.9
v 2.2 3 4
v 2.2 3 3.9
v 2.2 3.6 4
v 2.2 3.6 3.9
v 2.2 3.9 3.8
v 2.2 3.9 -3.8
v 2.2 4 4
v 2.2 4 -4
v -2 0 4.2
v -2 0.1 4.2
v 2.2 0 4.2
v 2.2 0.1 4.2
v -2.3 1.5 4
v -2.3 2 4
v -2.3 2.3 4
v -2.3 2.8 4
v -2.3 3.1 4
v -2.3 3.6 4
v -1.8 0.1 4
v -1.8 0.2 4
v -1.8 1.4 4
v -1.8 1.5 4
v -1.8 2 4
v -1.8 2.2 4
v -1.8 2.3 4
v -1.8 2.8 4
v -1.8 3 4
v -1.8 3.1 4
v -1.8 3.6 4
v -1.8 4 4
v 2.2 0.1 4
v 2.2 0.2 4
v 2.2 1.4 4
v 2.2 2 4
v 2.2 2.2 4
v 2.2 2.8 4
v 2.2 3 4
v 2.2 3.6 4
v 2.2 4 4
v -1.8 0.1 2.6
v -1.8 1 2.6
v -1.7 0.1 2.6
v -1.7 1 2.6
v -2.2 1.6 2.2
v -2.2 2 2.2
v -2.2 2.4 2.2
v -2.2 2.8 2.2
v -2.2 3.2 2.2
v -2.2 3.6 2.2
v -1.8 1.6 2.2
v -1.8 2 2.2
v -1.8 2.4 2.2
v -1.8 2.8 2.2
v -1.8 3.2 2.2
v -1.8 3.6 2.2
v -1.5 0 -3.8
v -1.5 1.1 -3.8
v -1.5 1.6 -3.8
v -1.5 1.8 -3.8
v -1.5 2.3 -3.8
v -1.5 2.5 -3.8
v -1.5 3 -3.8
v -1.5 3.2 -3.8
v -1.5 3.7 -3.8
v -1.5 3.9 -3.8
v 0.2 1.1 -3.8
v 0.2 1.6 -3.8
v 0.2 1.8 -3.8
v 0.2 2.3 -3.8
v 0.2 2.5 -3.8
v 0.2 3 -3.8
v 0.2 3.2 -3.8
v 0.2 3.7 -3.8
v 2.2 0 -3.8
v 2.2 3.9 -3.8
v -2.2 1.6 3.9
v -2.2 2 3.9
v -2.2 2.4 3.9
v -2.2 2.8 3.9
v -2.2 3.2 3.9
v -2.2 3.6 3.9
v -1.8 1.6 3.9
v -1.8 2 3.9
v -1.8 2.4 3.9
v -1.8 2.8 3.9
v -1.8 3.2 3.9
v -1.8 3.6 3.9
v -1.5 0 3.8
v -1.5 3.9 3.8
v 2.2 0 3.8
v 2.2 3.9 3.8
v -1.8 0.1 3.2
v -1.8 1 3.2
v -1.7 0.1 3.2
v -1.7 1 3.2
v -2.3 1.5 2.1
v -2.3 2 2.1
v -2.3 2.3 2.1
v -2.3 2.8 2.1
v -2.3 3.1 2.1
v -2.3 3.6 2.1
v -1.8 1.5 2.1
v -1.8 2 2.1
v -1.8 2.3 2.1
v -1.8 2.8 2.1
v -1.8 3.1 2.1
v -1.8 3.6 2.1
v -1.8 1.1 1.8
v -1.8 1.6 1.8
v -1.8 1.8 1.8
v -1.8 2.3 1.8
v -1.8 2.5 1.8
v -1.8 3 1.8
v -1.8 3.2 1.8
v -1.8 3.7 1.8
v -1.7 1.1 1.8
v -1.7 1.6 1.8
v -1.7 1.8 1.8
v -1.7 2.3 1.8
v -1.7 2.5 1.8
v -1.7 3 1.8
v -1.7 3.2 1.8
v -1.7 3.7 1.8
v -1.7 1.1 -3.9
v -1.7 1.6 -3.9
v -1.7 1.8 -3.9
v -1.7 2.3 -3.9
v -1.7 2.5 -3.9
v -1.7 3 -3.9
v -1.7 3.2 -3.9
v -1.7 3.7 -3.9
v 0.2 1.1 -3.9
v 0.2 1.6 -3.9
v 0.2 1.8 -3.9
v 0.2 2.3 -3.9
v 0.2 2.5 -3.9
v 0.2 3 -3.9
v 0.2 3.2 -3.9
v 0.2 3.7 -3.9
v -1.8 0.1 -4
v -1.8 0.2 -4
v -1.8 1 -4
v -1.8 1.1 -4
v -1.8 1.6 -4
v -1.8 1.7 -4
v -1.8 1.8 -4
v -1.8 2.3 -4
v -1.8 2.4 -4
v -1.8 2.5 -4
v -1.8 3 -4
v -1.8 3.1 -4
v -1.8 3.2 -4
v -1.8 3.7 -4
v -1.8 4 -4
v 0.2 1.1 -4
v 0.2 1.6 -4
v 0.2 1.8 -4
v 0.2 2.3 -4
v 0.2 2.5 -4
v 0.2 3 -4
v 0.2 3.2 -4
v 0.2 3.7 -4
v 0.3 1 -4
v 0.3 1.6 -4
v 0.3 1.7 -4
v 0.3 2.3 -4
v 0.3 2.4 -4
v 0.3 3 -4
v 0.3 3.1 -4
v 0.3 3.7 -4
v 2.2 0.1 -4
v 2.2 0.2 -4
v 2.2 4 -4
v -2 0 -4.2
v -2 0.1 -4.2
v 2.2 0 -4.2
v 2.2 0.1 -4.2
v -2 0 4.2
v 2.2 0 4.2
v -1.8 0 4
v 2.2 0 4
v -1.5 0 3.8
v 2.2 0 3.8
v -1.8 0 3.2
v -1.7 0 3.2
v -1.6 0 3.2
v -1.8 0 2.6
v -1.7 0 2.6
v -1.6 0 2.6
v -1.5 0 -3.8
v 2.2 0 -3.8
v -1.8 0 -4
v 2.2 0 -4
v -2 0 -4.2
v 2.2 0 -4.2
v -1.8 1 3.2
v -1.7 1 3.2
v -1.8 1 2.6
v -1.7 1 2.6
v -2.3 1.5 4
v -1.8 1.5 4
v -2.3 1.5 2.1
v -1.8 1.5 2.1
v -1.8 1.6 1.8
v -1.7 1.6 1.8
v -1.7 1.6 -3.9
v 0.2 1.6 -3.9
v -1.8 1.6 -4
v 0.2 1.6 -4
v -2.3 2.3 4
v -1.8 2.3 4
v -2.3 2.3 2.1
v -1.8 2.3 2.1
v -1.8 2.3 1.8
v -1.7 2.3 1.8
v -1.7 2.3 -3.9
v 0.2 2.3 -3.9
v -1.8 2.3 -4
v 0.2 2.3 -4
v -1.8 3 1.8
v -1.7 3 1.8
v -1.7 3 -3.9
v 0.2 3 -3.9
v -1.8 3 -4
v 0.2 3 -4
v -2.3 3.1 4
v -1.8 3.1 4
v -2.3 3.1 2.1
v -1.8 3.1 2.1
v -1.8 3.7 1.8
v -1.7 3.7 1.8
v -1.7 3.7 -3.9
v 0.2 3.7 -3.9
v -1.8 3.7 -4
v 0.2 3.7 -4
v -1.5 3.9 3.8
v 2.2 3.9 3.8
v -1.5 3.9 -3.8
v 2.2 3.9 -3.8
v -2 0.1 4.2
v 2.2 0.1 4.2
v -1.8 0.1 4
v 2.2 0.1 4
v -1.8 0.1 3.2
v -1.7 0.1 3.2
v -1.8 0.1 2.6
v -1.7 0.1 2.6
v -1.8 0.1 -4
v 2.2 0.1 -4
v -2 0.1 -4.2
v 2.2 0.1 -4.2
v -1.8 1.1 1.8
v -1.7 1.1 1.8
v -1.7 1.1 -3.9
v 0.2 1.1 -3.9
v -1.8 1.1 -4
v 0.2 1.1 -4
v -2.2 1.6 3.9
v -1.8 1.6 3.9
v -2.2 1.6 2.2
v -1.8 1.6 2.2
v -1.8 1.8 1.8
v -1.7 1.8 1.8
v -1.7 1.8 -3.9
v 0.2 1.8 -3.9
v -1.8 1.8 -4
v 0.2 1.8 -4
v -2.3 2 4
v -1.8 2 4
v -2.2 2 3.9
v -1.8 2 3.9
v -2.2 2 2.2
v -1.8 2 2.2
v -2.3 2 2.1
v -1.8 2 2.1
v -2.2 2.4 3.9
v -1.8 2.4 3.9
v -2.2 2.4 2.2
v -1.8 2.4 2.2
v -1.8 2.5 1.8
v -1.7 2.5 1.8
v -1.7 2.5 -3.9
v 0.2 2.5 -3.9
v -1.8 2.5 -4
v 0.2 2.5 -4
v -2.3 2.8 4
v -1.8 2.8 4
v -2.2 2.8 3.9
v -1.8 2.8 3.9
v -2.2 2.8 2.2
v -1.8 2.8 2.2
v -2.3 2.8 2.1
v -1.8 2.8 2.1
v -2.2 3.2 3.9
v -1.8 3.2 3.9
v -2.2 3.2 2.2
v -1.8 3.2 2.2
v -1.8 3.2 1.8
v -1.7 3.2 1.8
v -1.7 3.2 -3.9
v 0.2 3.2 -3.9
v -1.8 3.2 -4
v 0.2 3.2 -4
v -2.3 3.6 4
v -1.8 3.6 4
v -2.2 3.6 3.9
v -1.8 3.6 3.9
v -2.2 3.6 2.2
v -1.8 3.6 2.2
v -2.3 3.6 2.1
v -1.8 3.6 2.1
v -1.8 4 4
v 2.2 4 4
v -1.8 4 -4
v 2.2 4 -4

# faces
f 3/3/1 2/3/1 1/3/1
f 4/3/1 2/3/1 3/3/1
f 7/3/1 6/3/1 5/3/1
f 8/3/1 6/3/1 7/3/1
f 11/3/1 10/3/1 9/3/1
f 12/3/1 10/3/1 11/3/1
f 15/5/1 14/5/1 13/5/1
f 16/5/1 14/5/1 15/5/1
f 21/3/1 18/3/1 17/3/1
f 22/3/1 18/3/1 21/3/1
f 23/3/1 20/3/1 19/3/1
f 24/3/1 20/3/1 23/3/1
f 25/3/1 18/3/1 22/3/1
f 26/3/1 23/3/1 19/3/1
f 27/2/1 24/2/1 23/2/1
f 28/2/1 24/2/1 27/2/1
f 29/2/1 22/2/1 21/2/1
f 29/3/1 25/3/1 22/3/1
f 29/3/1 26/3/1 25/3/1
f 30/2/1 27/2/1 23/2/1
f 30/3/1 26/3/1 29/3/1
f 30/3/1 23/3/1 26/3/1
f 31/3/1 28/3/1 27/3/1
f 32/3/1 28/3/1 31/3/1
f 33/2/1 29/2/1 21/2/1
f 33/2/1 30/2/1 29/2/1
f 34/2/1 27/2/1 30/2/1
f 34/2/1 30/2/1 33/2/1
f 35/3/1 34/3/1 33/3/1
f 36/2/1 27/2/1 34/2/1
f 36/3/1 34/3/1 35/3/1
f 39/3/1 31/3/1 27/3/1
f 39/2/1 27/2/1 36/2/1
f 40/3/1 31/3/1 39/3/1
f 42/2/1 39/2/1 36/2/1
f 42/2/1 41/2/1 40/2/1
f 42/2/1 40/2/1 39/2/1
f 43/2/1 41/2/1 42/2/1
f 44/3/1 43/3/1 42/3/1
f 45/3/1 43/3/1 44/3/1
f 47/2/1 38/2/1 37/2/1
f 48/2/1 38/2/1 47/2/1
f 49/2/1 42/2/1 36/2/1
f 50/2/1 48/2/1 47/2/1
f 50/2/1 49/2/1 48/2/1
f 50/2/1 47/2/1 46/2/1
f 51/2/1 42/2/1 49/2/1
f 51/2/1 49/2/1 50/2/1
f 52/3/1 51/3/1 50/3/1
f 53/2/1 42/2/1 51/2/1
f 53/3/1 51/3/1 52/3/1
f 54/3/1 44/3/1 42/3/1
f 54/2/1 42/2/1 53/2/1
f 55/3/1 44/3/1 54/3/1
f 59/2/1 56/2/1 55/2/1
f 59/2/1 54/2/1 53/2/1
f 59/2/1 55/2/1 54/2/1
f 60/2/1 56/2/1 59/2/1
f 61/3/1 60/3/1 59/3/1
f 62/3/1 60/3/1 61/3/1
f 64/2/1 58/2/1 57/2/1
f 65/2/1 58/2/1 64/2/1
f 66/2/1 59/2/1 53/2/1
f 67/2/1 65/2/1 64/2/1
f 67/2/1 66/2/1 65/2/1
f 67/2/1 64/2/1 63/2/1
f 68/2/1 59/2/1 66/2/1
f 68/2/1 66/2/1 67/2/1
f 69/3/1 61/3/1 59/3/1
f 69/2/1 59/2/1 68/2/1
f 70/3/1 61/3/1 69/3/1
f 72/3/1 68/3/1 67/3/1
f 73/2/1 71/2/1 70/2/1
f 73/3/1 68/3/1 72/3/1
f 73/2/1 69/2/1 68/2/1
f 73/2/1 70/2/1 69/2/1
f 74/2/1 71/2/1 73/2/1
f 75/2/1 71/2/1 74/2/1
f 78/3/1 75/3/1 74/3/1
f 79/3/1 75/3/1 78/3/1
f 81/2/1 77/2/1 76/2/1
f 82/2/1 77/2/1 81/2/1
f 83/2/1 74/2/1 73/2/1
f 84/2/1 82/2/1 81/2/1
f 84/2/1 83/2/1 82/2/1
f 84/2/1 74/2/1 83/2/1
f 84/3/1 78/3/1 74/3/1
f 84/2/1 81/2/1 80/2/1
f 85/3/1 78/3/1 84/3/1
f 87/2/1 84/2/1 80/2/1
f 87/2/1 86/2/1 85/2/1
f 87/2/1 85/2/1 84/2/1
f 88/2/1 86/2/1 87/2/1
f 91/4/1 90/4/1 89/4/1
f 92/4/1 90/4/1 91/4/1
f 95/1/1 94/1/1 93/1/1
f 96/1/1 94/1/1 95/1/1
f 99/1/1 98/1/1 97/1/1
f 100/1/1 98/1/1 99/1/1
f 103/1/1 102/1/1 101/1/1
f 104/1/1 102/1/1 103/1/1
f 107/1/1 106/1/1 105/1/1
f 108/1/1 106/1/1 107/1/1
f 111/3/1 110/3/1 109/3/1
f 112/3/1 110/3/1 111/3/1
f 115/3/1 114/3/1 113/3/1
f 116/3/1 114/3/1 115/3/1
f 119/3/1 118/3/1 117/3/1
f 120/3/1 118/3/1 119/3/1
f 123/3/1 122/3/1 121/3/1
f 124/3/1 122/3/1 123/3/1
f 125/3/2 126/3/2 127/3/2
f 127/3/2 126/3/2 128/3/2
f 129/3/2 130/3/2 131/3/2
f 131/3/2 130/3/2 132/3/2
f 133/3/2 134/3/2 135/3/2
f 135/3/2 134/3/2 136/3/2
f 137/2/2 138/2/2 139/2/2
f 137/2/2 139/2/2 140/2/2
f 137/2/2 140/2/2 141/2/2
f 137/2/2 141/2/2 142/2/2
f 137/2/2 142/2/2 143/2/2
f 137/2/2 143/2/2 144/2/2
f 137/2/2 144/2/2 145/2/2
f 137/2/2 145/2/2 146/2/2
f 137/2/2 146/2/2 147/2/2
f 147/2/2 146/2/2 148/2/2
f 149/5/2 150/5/2 155/5/2
f 150/2/2 151/2/2 156/2/2
f 155/5/2 150/5/2 156/5/2
f 156/2/2 151/2/2 157/2/2
f 152/2/2 153/2/2 158/2/2
f 153/5/2 154/5/2 159/5/2
f 158/2/2 153/2/2 159/2/2
f 159/5/2 154/5/2 160/5/2
f 156/3/2 157/3/2 161/3/2
f 157/2/2 151/2/2 162/2/2
f 161/3/2 157/3/2 162/3/2
f 152/2/2 158/2/2 163/2/2
f 158/3/2 159/3/2 163/3/2
f 163/3/2 159/3/2 164/3/2
f 161/2/2 162/2/2 165/2/2
f 162/2/2 151/2/2 166/2/2
f 165/2/2 162/2/2 166/2/2
f 165/3/2 166/3/2 167/3/2
f 166/2/2 151/2/2 168/2/2
f 167/3/2 166/3/2 168/3/2
f 167/2/2 168/2/2 169/2/2
f 168/2/2 151/2/2 170/2/2
f 169/2/2 168/2/2 170/2/2
f 169/3/2 170/3/2 171/3/2
f 170/2/2 151/2/2 172/2/2
f 171/3/2 170/3/2 172/3/2
f 171/2/2 172/2/2 173/2/2
f 172/2/2 151/2/2 174/2/2
f 173/2/2 172/2/2 174/2/2
f 173/3/2 174/3/2 175/3/2
f 174/2/2 151/2/2 176/2/2
f 175/3/2 174/3/2 176/3/2
f 175/2/2 176/2/2 177/2/2
f 176/2/2 151/2/2 177/2/2
f 152/2/2 163/2/2 178/2/2
f 163/2/2 164/2/2 178/2/2
f 175/2/2 177/2/2 179/2/2
f 177/2/2 178/2/2 179/2/2
f 178/2/2 164/2/2 180/2/2
f 179/2/2 178/2/2 180/2/2
f 183/5/3 182/5/3 181/5/3
f 184/5/3 182/5/3 183/5/3
f 194/3/3 186/3/3 185/3/3
f 195/3/3 186/3/3 194/3/3
f 197/3/3 188/3/3 187/3/3
f 198/3/3 188/3/3 197/3/3
f 200/3/3 190/3/3 189/3/3
f 201/3/3 190/3/3 200/3/3
f 203/3/3 192/3/3 191/3/3
f 204/2/3 193/2/3 192/2/3
f 204/3/3 192/3/3 203/3/3
f 205/3/3 194/3/3 193/3/3
f 205/2/3 193/2/3 204/2/3
f 205/3/3 195/3/3 194/3/3
f 206/2/3 196/2/3 195/2/3
f 206/3/3 195/3/3 205/3/3
f 207/3/3 197/3/3 196/3/3
f 207/2/3 196/2/3 206/2/3
f 207/3/3 198/3/3 197/3/3
f 208/2/3 199/2/3 198/2/3
f 208/3/3 198/3/3 207/3/3
f 209/3/3 201/3/3 200/3/3
f 209/2/3 199/2/3 208/2/3
f 209/3/3 200/3/3 199/3/3
f 210/2/3 202/2/3 201/2/3
f 210/3/3 201/3/3 209/3/3
f 211/2/3 202/2/3 210/2/3
f 214/3/3 213/3/3 212/3/3
f 215/3/3 213/3/3 214/3/3
f 222/3/3 217/3/3 216/3/3
f 223/3/3 217/3/3 222/3/3
f 224/3/3 219/3/3 218/3/3
f 225/3/3 219/3/3 224/3/3
f 226/3/3 221/3/3 220/3/3
f 227/3/3 221/3/3 226/3/3
f 238/2/3 229/2/3 228/2/3
f 238/1/3 230/1/3 229/1/3
f 239/2/3 231/2/3 230/2/3
f 239/1/3 230/1/3 238/1/3
f 240/1/3 232/1/3 231/1/3
f 240/2/3 231/2/3 239/2/3
f 241/2/3 233/2/3 232/2/3
f 241/1/3 232/1/3 240/1/3
f 242/1/3 234/1/3 233/1/3
f 242/2/3 233/2/3 241/2/3
f 243/2/3 235/2/3 234/2/3
f 243/1/3 234/1/3 242/1/3
f 244/1/3 236/1/3 235/1/3
f 244/2/3 235/2/3 243/2/3
f 245/2/3 237/2/3 236/2/3
f 245/1/3 236/1/3 244/1/3
f 246/2/3 244/2/3 243/2/3
f 246/2/3 243/2/3 242/2/3
f 246/2/3 245/2/3 244/2/3
f 246/2/3 242/2/3 241/2/3
f 246/2/3 241/2/3 240/2/3
f 246/2/3 240/2/3 239/2/3
f 246/2/3 239/2/3 238/2/3
f 246/2/3 238/2/3 228/2/3
f 247/2/3 237/2/3 245/2/3
f 247/2/3 245/2/3 246/2/3
f 248/3/4 249/3/4 254/3/4
f 254/3/4 249/3/4 255/3/4
f 250/3/4 251/3/4 256/3/4
f 256/3/4 251/3/4 257/3/4
f 252/3/4 253/3/4 258/3/4
f 258/3/4 253/3/4 259/3/4
f 260/2/4 261/2/4 262/2/4
f 262/2/4 261/2/4 263/2/4
f 264/3/4 265/3/4 266/3/4
f 266/3/4 265/3/4 267/3/4
f 268/3/4 269/3/4 274/3/4
f 274/3/4 269/3/4 275/3/4
f 270/3/4 271/3/4 276/3/4
f 276/3/4 271/3/4 277/3/4
f 272/3/4 273/3/4 278/3/4
f 278/3/4 273/3/4 279/3/4
f 280/3/4 281/3/4 288/3/4
f 288/3/4 281/3/4 289/3/4
f 282/3/4 283/3/4 290/3/4
f 290/3/4 283/3/4 291/3/4
f 284/3/4 285/3/4 292/3/4
f 292/3/4 285/3/4 293/3/4
f 286/3/4 287/3/4 294/3/4
f 294/3/4 287/3/4 295/3/4
f 296/1/4 297/1/4 304/1/4
f 304/1/4 297/1/4 305/1/4
f 298/1/4 299/1/4 306/1/4
f 306/1/4 299/1/4 307/1/4
f 300/1/4 301/1/4 308/1/4
f 308/1/4 301/1/4 309/1/4
f 302/1/4 303/1/4 310/1/4
f 310/1/4 303/1/4 311/1/4
f 314/3/4 315/3/4 327/3/4
f 316/2/4 317/2/4 328/2/4
f 317/3/4 318/3/4 329/3/4
f 319/2/4 320/2/4 330/2/4
f 320/3/4 321/3/4 331/3/4
f 322/2/4 323/2/4 332/2/4
f 323/3/4 324/3/4 333/3/4
f 325/2/4 326/2/4 334/2/4
f 313/2/4 314/2/4 335/2/4
f 314/3/4 327/3/4 335/3/4
f 327/3/4 328/3/4 335/3/4
f 328/2/4 317/2/4 336/2/4
f 335/3/4 328/3/4 336/3/4
f 317/3/4 329/3/4 337/3/4
f 336/2/4 317/2/4 337/2/4
f 329/3/4 330/3/4 337/3/4
f 330/2/4 320/2/4 338/2/4
f 337/3/4 330/3/4 338/3/4
f 320/3/4 331/3/4 339/3/4
f 338/2/4 320/2/4 339/2/4
f 331/3/4 332/3/4 339/3/4
f 332/2/4 323/2/4 340/2/4
f 339/3/4 332/3/4 340/3/4
f 333/3/4 334/3/4 341/3/4
f 340/2/4 323/2/4 341/2/4
f 323/3/4 333/3/4 341/3/4
f 334/2/4 326/2/4 342/2/4
f 341/3/4 334/3/4 342/3/4
f 312/3/4 313/3/4 343/3/4
f 339/2/4 340/2/4 344/2/4
f 343/3/4 313/3/4 344/3/4
f 336/2/4 337/2/4 344/2/4
f 341/2/4 342/2/4 344/2/4
f 340/2/4 341/2/4 344/2/4
f 313/2/4 335/2/4 344/2/4
f 335/2/4 336/2/4 344/2/4
f 338/2/4 339/2/4 344/2/4
f 337/2/4 338/2/4 344/2/4
f 342/2/4 326/2/4 345/2/4
f 344/2/4 342/2/4 345/2/4
f 346/5/4 347/5/4 348/5/4
f 348/5/4 347/5/4 349/5/4
f 352/5/5 351/5/5 350/5/5
f 353/5/5 351/5/5 352/5/5
f 354/2/5 353/2/5 352/2/5
f 355/2/5 353/2/5 354/2/5
f 356/5/5 352/5/5 350/5/5
f 356/2/5 354/2/5 352/2/5
f 357/2/5 354/2/5 356/2/5
f 358/2/5 354/2/5 357/2/5
f 359/5/5 356/5/5 350/5/5
f 359/5/5 357/5/5 356/5/5
f 360/6/5 358/6/5 357/6/5
f 360/5/5 357/5/5 359/5/5
f 361/2/5 354/2/5 358/2/5
f 361/6/5 358/6/5 360/6/5
f 362/2/5 360/2/5 359/2/5
f 362/2/5 354/2/5 361/2/5
f 362/2/5 361/2/5 360/2/5
f 364/5/5 359/5/5 350/5/5
f 364/2/5 363/2/5 362/2/5
f 364/2/5 362/2/5 359/2/5
f 365/2/5 363/2/5 364/2/5
f 366/5/5 364/5/5 350/5/5
f 366/5/5 365/5/5 364/5/5
f 367/5/5 365/5/5 366/5/5
f 370/3/5 369/3/5 368/3/5
f 371/3/5 369/3/5 370/3/5
f 374/3/5 373/3/5 372/3/5
f 375/3/5 373/3/5 374/3/5
f 378/2/5 377/2/5 376/2/5
f 380/2/5 378/2/5 376/2/5
f 380/2/5 379/2/5 378/2/5
f 381/2/5 379/2/5 380/2/5
f 384/3/5 383/3/5 382/3/5
f 385/3/5 383/3/5 384/3/5
f 388/2/5 387/2/5 386/2/5
f 390/2/5 388/2/5 386/2/5
f 390/2/5 389/2/5 388/2/5
f 391/2/5 389/2/5 390/2/5
f 394/2/5 393/2/5 392/2/5
f 396/2/5 394/2/5 392/2/5
f 396/2/5 395/2/5 394/2/5
f 397/2/5 395/2/5 396/2/5
f 400/3/5 399/3/5 398/3/5
f 401/3/5 399/3/5 400/3/5
f 404/2/5 403/2/5 402/2/5
f 406/2/5 404/2/5 402/2/5
f 406/2/5 405/2/5 404/2/5
f 407/2/5 405/2/5 406/2/5
f 410/2/5 409/2/5 408/2/5
f 411/2/5 409/2/5 410/2/5
f 412/5/6 413/5/6 414/5/6
f 414/5/6 413/5/6 415/5/6
f 412/5/6 414/5/6 416/5/6
f 412/5/6 416/5/6 418/5/6
f 416/5/6 417/5/6 418/5/6
f 418/5/6 417/5/6 419/5/6
f 412/5/6 418/5/6 420/5/6
f 412/5/6 420/5/6 422/5/6
f 420/5/6 421/5/6 422/5/6
f 422/5/6 421/5/6 423/5/6
f 424/3/6 425/3/6 426/3/6
f 424/3/6 426/3/6 428/3/6
f 426/3/6 427/3/6 428/3/6
f 428/3/6 427/3/6 429/3/6
f 430/3/6 431/3/6 432/3/6
f 432/3/6 431/3/6 433/3/6
f 434/3/6 435/3/6 436/3/6
f 434/3/6 436/3/6 438/3/6
f 436/3/6 437/3/6 438/3/6
f 438/3/6 437/3/6 439/3/6
f 440/3/6 441/3/6 442/3/6
f 442/3/6 441/3/6 443/3/6
f 440/3/6 442/3/6 444/3/6
f 440/3/6 444/3/6 446/3/6
f 444/3/6 445/3/6 446/3/6
f 446/3/6 445/3/6 447/3/6
f 448/3/6 449/3/6 450/3/6
f 450/3/6 449/3/6 451/3/6
f 452/3/6 453/3/6 454/3/6
f 452/3/6 454/3/6 456/3/6
f 454/3/6 455/3/6 456/3/6
f 456/3/6 455/3/6 457/3/6
f 458/3/6 459/3/6 460/3/6
f 460/3/6 459/3/6 461/3/6
f 458/3/6 460/3/6 462/3/6
f 458/3/6 462/3/6 464/3/6
f 462/3/6 463/3/6 464/3/6
f 464/3/6 463/3/6 465/3/6
f 466/3/6 467/3/6 468/3/6
f 468/3/6 467/3/6 469/3/6
f 470/3/6 471/3/6 472/3/6
f 470/3/6 472/3/6 474/3/6
f 472/3/6 473/3/6 474/3/6
f 474/3/6 473/3/6 475/3/6
f 476/3/6 477/3/6 478/3/6
f 478/3/6 477/3/6 479/3/6
f 476/3/6 478/3/6 480/3/6
f 476/3/6 480/3/6 482/3/6
f 480/3/6 481/3/6 482/3/6
f 482/3/6 481/3/6 483/3/6
f 484/2/6 485/2/6 486/2/6
f 486/2/6 485/2/6 487/2/6
