# MagicaVoxel @ Ephtracy

# group
o 

# material
mtllib barrier.mtl
usemtl palette

# normals
vn -1 0 0
vn 1 0 0
vn 0 0 1
vn 0 0 -1
vn 0 -1 0
vn 0 1 0

# texcoords
vt 0.00195313 0.5
vt 0.841797 0.5
vt 0.986328 0.5
vt 0.994141 0.5

# verts
v -0.4 0 -1
v -0.4 0 -1.6
v -0.4 0.1 -1
v -0.4 0.1 -1.6
v -0.4 1 -1
v -0.4 1 -1.6
v 0.3 0.6 1.7
v 0.3 0.6 1.6
v 0.3 0.6 1.5
v 0.3 0.6 1.2
v 0.3 0.6 1.1
v 0.3 0.6 0.8
v 0.3 0.6 0.7
v 0.3 0.6 0.4
v 0.3 0.6 0.3
v 0.3 0.6 0
v 0.3 0.6 -0.0999999
v 0.3 0.6 -0.4
v 0.3 0.6 -0.5
v 0.3 0.6 -0.8
v 0.3 0.6 -0.9
v 0.3 0.6 -1
v 0.3 0.7 1.7
v 0.3 0.7 1.6
v 0.3 0.7 1.5
v 0.3 0.7 1.4
v 0.3 0.7 1.3
v 0.3 0.7 1.2
v 0.3 0.7 1.1
v 0.3 0.7 1
v 0.3 0.7 0.9
v 0.3 0.7 0.8
v 0.3 0.7 0.7
v 0.3 0.7 0.6
v 0.3 0.7 0.5
v 0.3 0.7 0.4
v 0.3 0.7 0.3
v 0.3 0.7 0.2
v 0.3 0.7 0.1
v 0.3 0.7 0
v 0.3 0.7 -0.0999999
v 0.3 0.7 -0.2
v 0.3 0.7 -0.3
v 0.3 0.7 -0.4
v 0.3 0.7 -0.5
v 0.3 0.7 -0.6
v 0.3 0.7 -0.7
v 0.3 0.7 -0.8
v 0.3 0.7 -0.9
v 0.3 0.7 -1
v 0.3 0.8 1.7
v 0.3 0.8 1.4
v 0.3 0.8 1.3
v 0.3 0.8 1
v 0.3 0.8 0.9
v 0.3 0.8 0.6
v 0.3 0.8 0.5
v 0.3 0.8 0.2
v 0.3 0.8 0.1
v 0.3 0.8 -0.2
v 0.3 0.8 -0.3
v 0.3 0.8 -0.6
v 0.3 0.8 -0.7
v 0.3 0.8 -1
v 0.3 0 -1
v 0.3 0 -1.6
v 0.3 0.1 -1
v 0.3 0.1 -1.6
v 0.3 0.5 -1.1
v 0.3 0.5 -1.5
v 0.3 0.6 -1
v 0.3 0.6 -1.1
v 0.3 0.8 -1
v 0.3 0.8 -1.1
v 0.3 0.9 -1.1
v 0.3 0.9 -1.5
v 0.3 1 -1
v 0.3 1 -1.6
v 0.4 0.5 -1.1
v 0.4 0.5 -1.5
v 0.4 0.6 1.7
v 0.4 0.6 1.6
v 0.4 0.6 1.5
v 0.4 0.6 1.2
v 0.4 0.6 1.1
v 0.4 0.6 0.8
v 0.4 0.6 0.7
v 0.4 0.6 0.4
v 0.4 0.6 0.3
v 0.4 0.6 0
v 0.4 0.6 -0.0999999
v 0.4 0.6 -0.4
v 0.4 0.6 -0.5
v 0.4 0.6 -0.8
v 0.4 0.6 -0.9
v 0.4 0.6 -1
v 0.4 0.6 -1.1
v 0.4 0.7 1.7
v 0.4 0.7 1.6
v 0.4 0.7 1.5
v 0.4 0.7 1.4
v 0.4 0.7 1.3
v 0.4 0.7 1.2
v 0.4 0.7 1.1
v 0.4 0.7 1
v 0.4 0.7 0.9
v 0.4 0.7 0.8
v 0.4 0.7 0.7
v 0.4 0.7 0.6
v 0.4 0.7 0.5
v 0.4 0.7 0.4
v 0.4 0.7 0.3
v 0.4 0.7 0.2
v 0.4 0.7 0.1
v 0.4 0.7 0
v 0.4 0.7 -0.0999999
v 0.4 0.7 -0.2
v 0.4 0.7 -0.3
v 0.4 0.7 -0.4
v 0.4 0.7 -0.5
v 0.4 0.7 -0.6
v 0.4 0.7 -0.7
v 0.4 0.7 -0.8
v 0.4 0.7 -0.9
v 0.4 0.7 -1
v 0.4 0.8 1.7
v 0.4 0.8 1.4
v 0.4 0.8 1.3
v 0.4 0.8 1
v 0.4 0.8 0.9
v 0.4 0.8 0.6
v 0.4 0.8 0.5
v 0.4 0.8 0.2
v 0.4 0.8 0.1
v 0.4 0.8 -0.2
v 0.4 0.8 -0.3
v 0.4 0.8 -0.6
v 0.4 0.8 -0.7
v 0.4 0.8 -1
v 0.4 0.8 -1.1
v 0.4 0.9 -1.1
v 0.4 0.9 -1.5
v 0.3 0.6 1.7
v 0.3 0.7 1.7
v 0.3 0.8 1.7
v 0.4 0.6 1.7
v 0.4 0.7 1.7
v 0.4 0.8 1.7
v -0.4 0 -1
v -0.4 0.1 -1
v -0.4 1 -1
v 0.3 0 -1
v 0.3 0.1 -1
v 0.3 0.6 -1
v 0.3 0.7 -1
v 0.3 0.8 -1
v 0.3 1 -1
v 0.3 0.5 -1.1
v 0.3 0.6 -1.1
v 0.3 0.8 -1.1
v 0.3 0.9 -1.1
v 0.4 0.5 -1.1
v 0.4 0.6 -1.1
v 0.4 0.8 -1.1
v 0.4 0.9 -1.1
v 0.3 0.5 -1.5
v 0.3 0.9 -1.5
v 0.4 0.5 -1.5
v 0.4 0.9 -1.5
v -0.4 0 -1.6
v -0.4 0.1 -1.6
v -0.4 1 -1.6
v 0.3 0 -1.6
v 0.3 0.1 -1.6
v 0.3 1 -1.6
v -0.4 0 -1
v 0.3 0 -1
v -0.3 0 -1.4
v 0.2 0 -1.4
v -0.3 0 -1.5
v 0.2 0 -1.5
v -0.4 0 -1.6
v 0.3 0 -1.6
v 0.3 0.5 -1.1
v 0.4 0.5 -1.1
v 0.3 0.5 -1.5
v 0.4 0.5 -1.5
v 0.3 0.6 1.7
v 0.4 0.6 1.7
v 0.3 0.6 1.6
v 0.4 0.6 1.6
v 0.3 0.6 1.5
v 0.4 0.6 1.5
v 0.3 0.6 1.2
v 0.4 0.6 1.2
v 0.3 0.6 1.1
v 0.4 0.6 1.1
v 0.3 0.6 0.8
v 0.4 0.6 0.8
v 0.3 0.6 0.7
v 0.4 0.6 0.7
v 0.3 0.6 0.4
v 0.4 0.6 0.4
v 0.3 0.6 0.3
v 0.4 0.6 0.3
v 0.3 0.6 0
v 0.4 0.6 0
v 0.3 0.6 -0.0999999
v 0.4 0.6 -0.0999999
v 0.3 0.6 -0.4
v 0.4 0.6 -0.4
v 0.3 0.6 -0.5
v 0.4 0.6 -0.5
v 0.3 0.6 -0.8
v 0.4 0.6 -0.8
v 0.3 0.6 -0.9
v 0.4 0.6 -0.9
v 0.3 0.6 -1
v 0.4 0.6 -1
v 0.3 0.6 -1.1
v 0.4 0.6 -1.1
v 0.3 0.8 1.7
v 0.4 0.8 1.7
v 0.3 0.8 1.4
v 0.4 0.8 1.4
v 0.3 0.8 1.3
v 0.4 0.8 1.3
v 0.3 0.8 1
v 0.4 0.8 1
v 0.3 0.8 0.9
v 0.4 0.8 0.9
v 0.3 0.8 0.6
v 0.4 0.8 0.6
v 0.3 0.8 0.5
v 0.4 0.8 0.5
v 0.3 0.8 0.2
v 0.4 0.8 0.2
v 0.3 0.8 0.1
v 0.4 0.8 0.1
v 0.3 0.8 -0.2
v 0.4 0.8 -0.2
v 0.3 0.8 -0.3
v 0.4 0.8 -0.3
v 0.3 0.8 -0.6
v 0.4 0.8 -0.6
v 0.3 0.8 -0.7
v 0.4 0.8 -0.7
v 0.3 0.8 -1
v 0.4 0.8 -1
v 0.3 0.8 -1.1
v 0.4 0.8 -1.1
v 0.3 0.9 -1.1
v 0.4 0.9 -1.1
v 0.3 0.9 -1.5
v 0.4 0.9 -1.5
v -0.4 1 -1
v 0.3 1 -1
v -0.4 1 -1.6
v 0.3 1 -1.6

# faces
f 3/4/1 2/4/1 1/4/1
f 4/4/1 2/4/1 3/4/1
f 5/3/1 4/3/1 3/3/1
f 6/3/1 4/3/1 5/3/1
f 23/1/1 8/1/1 7/1/1
f 24/2/1 9/2/1 8/2/1
f 24/1/1 8/1/1 23/1/1
f 25/1/1 10/1/1 9/1/1
f 25/2/1 9/2/1 24/2/1
f 26/1/1 10/1/1 25/1/1
f 27/1/1 10/1/1 26/1/1
f 28/2/1 11/2/1 10/2/1
f 28/1/1 10/1/1 27/1/1
f 29/1/1 12/1/1 11/1/1
f 29/2/1 11/2/1 28/2/1
f 30/1/1 12/1/1 29/1/1
f 31/1/1 12/1/1 30/1/1
f 32/2/1 13/2/1 12/2/1
f 32/1/1 12/1/1 31/1/1
f 33/1/1 14/1/1 13/1/1
f 33/2/1 13/2/1 32/2/1
f 34/1/1 14/1/1 33/1/1
f 35/1/1 14/1/1 34/1/1
f 36/2/1 15/2/1 14/2/1
f 36/1/1 14/1/1 35/1/1
f 37/1/1 16/1/1 15/1/1
f 37/2/1 15/2/1 36/2/1
f 38/1/1 16/1/1 37/1/1
f 39/1/1 16/1/1 38/1/1
f 40/2/1 17/2/1 16/2/1
f 40/1/1 16/1/1 39/1/1
f 41/1/1 18/1/1 17/1/1
f 41/2/1 17/2/1 40/2/1
f 42/1/1 18/1/1 41/1/1
f 43/1/1 18/1/1 42/1/1
f 44/2/1 19/2/1 18/2/1
f 44/1/1 18/1/1 43/1/1
f 45/1/1 20/1/1 19/1/1
f 45/2/1 19/2/1 44/2/1
f 46/1/1 20/1/1 45/1/1
f 47/1/1 20/1/1 46/1/1
f 48/2/1 21/2/1 20/2/1
f 48/1/1 20/1/1 47/1/1
f 49/1/1 22/1/1 21/1/1
f 49/2/1 21/2/1 48/2/1
f 50/1/1 22/1/1 49/1/1
f 51/2/1 24/2/1 23/2/1
f 51/2/1 25/2/1 24/2/1
f 51/2/1 26/2/1 25/2/1
f 52/1/1 27/1/1 26/1/1
f 52/2/1 26/2/1 51/2/1
f 53/2/1 28/2/1 27/2/1
f 53/1/1 27/1/1 52/1/1
f 53/2/1 29/2/1 28/2/1
f 53/2/1 30/2/1 29/2/1
f 54/1/1 31/1/1 30/1/1
f 54/2/1 30/2/1 53/2/1
f 55/2/1 32/2/1 31/2/1
f 55/1/1 31/1/1 54/1/1
f 55/2/1 33/2/1 32/2/1
f 55/2/1 34/2/1 33/2/1
f 56/1/1 35/1/1 34/1/1
f 56/2/1 34/2/1 55/2/1
f 57/2/1 36/2/1 35/2/1
f 57/1/1 35/1/1 56/1/1
f 57/2/1 37/2/1 36/2/1
f 57/2/1 38/2/1 37/2/1
f 58/1/1 39/1/1 38/1/1
f 58/2/1 38/2/1 57/2/1
f 59/2/1 40/2/1 39/2/1
f 59/1/1 39/1/1 58/1/1
f 59/2/1 42/2/1 41/2/1
f 59/2/1 41/2/1 40/2/1
f 60/1/1 43/1/1 42/1/1
f 60/2/1 42/2/1 59/2/1
f 61/2/1 44/2/1 43/2/1
f 61/1/1 43/1/1 60/1/1
f 61/2/1 46/2/1 45/2/1
f 61/2/1 45/2/1 44/2/1
f 62/1/1 47/1/1 46/1/1
f 62/2/1 46/2/1 61/2/1
f 63/2/1 48/2/1 47/2/1
f 63/1/1 47/1/1 62/1/1
f 63/2/1 50/2/1 49/2/1
f 63/2/1 49/2/1 48/2/1
f 64/2/1 50/2/1 63/2/1
f 65/4/2 66/4/2 67/4/2
f 67/4/2 66/4/2 68/4/2
f 67/3/2 68/3/2 69/3/2
f 69/3/2 68/3/2 70/3/2
f 67/3/2 69/3/2 71/3/2
f 71/3/2 69/3/2 72/3/2
f 73/3/2 74/3/2 75/3/2
f 70/3/2 68/3/2 76/3/2
f 73/3/2 75/3/2 77/3/2
f 75/3/2 76/3/2 77/3/2
f 76/3/2 68/3/2 78/3/2
f 77/3/2 76/3/2 78/3/2
f 79/4/2 80/4/2 97/4/2
f 81/1/2 82/1/2 98/1/2
f 82/2/2 83/2/2 99/2/2
f 98/1/2 82/1/2 99/1/2
f 83/1/2 84/1/2 100/1/2
f 99/2/2 83/2/2 100/2/2
f 100/1/2 84/1/2 101/1/2
f 101/1/2 84/1/2 102/1/2
f 84/2/2 85/2/2 103/2/2
f 102/1/2 84/1/2 103/1/2
f 85/1/2 86/1/2 104/1/2
f 103/2/2 85/2/2 104/2/2
f 104/1/2 86/1/2 105/1/2
f 105/1/2 86/1/2 106/1/2
f 86/2/2 87/2/2 107/2/2
f 106/1/2 86/1/2 107/1/2
f 87/1/2 88/1/2 108/1/2
f 107/2/2 87/2/2 108/2/2
f 108/1/2 88/1/2 109/1/2
f 109/1/2 88/1/2 110/1/2
f 88/2/2 89/2/2 111/2/2
f 110/1/2 88/1/2 111/1/2
f 89/1/2 90/1/2 112/1/2
f 111/2/2 89/2/2 112/2/2
f 112/1/2 90/1/2 113/1/2
f 113/1/2 90/1/2 114/1/2
f 90/2/2 91/2/2 115/2/2
f 114/1/2 90/1/2 115/1/2
f 91/1/2 92/1/2 116/1/2
f 115/2/2 91/2/2 116/2/2
f 116/1/2 92/1/2 117/1/2
f 117/1/2 92/1/2 118/1/2
f 92/2/2 93/2/2 119/2/2
f 118/1/2 92/1/2 119/1/2
f 93/1/2 94/1/2 120/1/2
f 119/2/2 93/2/2 120/2/2
f 120/1/2 94/1/2 121/1/2
f 121/1/2 94/1/2 122/1/2
f 94/2/2 95/2/2 123/2/2
f 122/1/2 94/1/2 123/1/2
f 95/1/2 96/1/2 124/1/2
f 123/2/2 95/2/2 124/2/2
f 96/4/2 97/4/2 125/4/2
f 124/1/2 96/1/2 125/1/2
f 98/2/2 99/2/2 126/2/2
f 99/2/2 100/2/2 126/2/2
f 100/2/2 101/2/2 126/2/2
f 101/1/2 102/1/2 127/1/2
f 126/2/2 101/2/2 127/2/2
f 102/2/2 103/2/2 128/2/2
f 127/1/2 102/1/2 128/1/2
f 103/2/2 104/2/2 128/2/2
f 104/2/2 105/2/2 128/2/2
f 105/1/2 106/1/2 129/1/2
f 128/2/2 105/2/2 129/2/2
f 106/2/2 107/2/2 130/2/2
f 129/1/2 106/1/2 130/1/2
f 107/2/2 108/2/2 130/2/2
f 108/2/2 109/2/2 130/2/2
f 109/1/2 110/1/2 131/1/2
f 130/2/2 109/2/2 131/2/2
f 110/2/2 111/2/2 132/2/2
f 131/1/2 110/1/2 132/1/2
f 112/2/2 113/2/2 132/2/2
f 111/2/2 112/2/2 132/2/2
f 113/1/2 114/1/2 133/1/2
f 132/2/2 113/2/2 133/2/2
f 114/2/2 115/2/2 134/2/2
f 133/1/2 114/1/2 134/1/2
f 116/2/2 117/2/2 134/2/2
f 115/2/2 116/2/2 134/2/2
f 117/1/2 118/1/2 135/1/2
f 134/2/2 117/2/2 135/2/2
f 118/2/2 119/2/2 136/2/2
f 135/1/2 118/1/2 136/1/2
f 120/2/2 121/2/2 136/2/2
f 119/2/2 120/2/2 136/2/2
f 121/1/2 122/1/2 137/1/2
f 136/2/2 121/2/2 137/2/2
f 122/2/2 123/2/2 138/2/2
f 137/1/2 122/1/2 138/1/2
f 123/2/2 124/2/2 138/2/2
f 124/2/2 125/2/2 138/2/2
f 125/4/2 97/4/2 139/4/2
f 138/2/2 125/2/2 139/2/2
f 97/4/2 80/4/2 140/4/2
f 139/4/2 97/4/2 140/4/2
f 140/4/2 80/4/2 141/4/2
f 141/4/2 80/4/2 142/4/2
f 146/1/3 144/1/3 143/1/3
f 147/2/3 145/2/3 144/2/3
f 147/1/3 144/1/3 146/1/3
f 148/2/3 145/2/3 147/2/3
f 152/4/3 150/4/3 149/4/3
f 153/3/3 151/3/3 150/3/3
f 153/4/3 150/4/3 152/4/3
f 154/3/3 151/3/3 153/3/3
f 155/3/3 151/3/3 154/3/3
f 156/3/3 151/3/3 155/3/3
f 157/3/3 151/3/3 156/3/3
f 162/4/3 159/4/3 158/4/3
f 163/4/3 159/4/3 162/4/3
f 164/4/3 161/4/3 160/4/3
f 165/4/3 161/4/3 164/4/3
f 166/4/4 167/4/4 168/4/4
f 168/4/4 167/4/4 169/4/4
f 170/4/4 171/4/4 173/4/4
f 171/3/4 172/3/4 174/3/4
f 173/4/4 171/4/4 174/4/4
f 174/3/4 172/3/4 175/3/4
f 178/4/5 177/4/5 176/4/5
f 179/4/5 177/4/5 178/4/5
f 180/4/5 178/4/5 176/4/5
f 180/2/5 179/2/5 178/2/5
f 181/4/5 177/4/5 179/4/5
f 181/2/5 179/2/5 180/2/5
f 182/4/5 180/4/5 176/4/5
f 182/4/5 181/4/5 180/4/5
f 183/4/5 177/4/5 181/4/5
f 183/4/5 181/4/5 182/4/5
f 186/4/5 185/4/5 184/4/5
f 187/4/5 185/4/5 186/4/5
f 190/1/5 189/1/5 188/1/5
f 191/1/5 189/1/5 190/1/5
f 192/2/5 191/2/5 190/2/5
f 193/2/5 191/2/5 192/2/5
f 194/1/5 193/1/5 192/1/5
f 195/1/5 193/1/5 194/1/5
f 196/2/5 195/2/5 194/2/5
f 197/2/5 195/2/5 196/2/5
f 198/1/5 197/1/5 196/1/5
f 199/1/5 197/1/5 198/1/5
f 200/2/5 199/2/5 198/2/5
f 201/2/5 199/2/5 200/2/5
f 202/1/5 201/1/5 200/1/5
f 203/1/5 201/1/5 202/1/5
f 204/2/5 203/2/5 202/2/5
f 205/2/5 203/2/5 204/2/5
f 206/1/5 205/1/5 204/1/5
f 207/1/5 205/1/5 206/1/5
f 208/2/5 207/2/5 206/2/5
f 209/2/5 207/2/5 208/2/5
f 210/1/5 209/1/5 208/1/5
f 211/1/5 209/1/5 210/1/5
f 212/2/5 211/2/5 210/2/5
f 213/2/5 211/2/5 212/2/5
f 214/1/5 213/1/5 212/1/5
f 215/1/5 213/1/5 214/1/5
f 216/2/5 215/2/5 214/2/5
f 217/2/5 215/2/5 216/2/5
f 218/1/5 217/1/5 216/1/5
f 219/1/5 217/1/5 218/1/5
f 220/4/5 219/4/5 218/4/5
f 221/4/5 219/4/5 220/4/5
f 222/2/6 223/2/6 224/2/6
f 224/2/6 223/2/6 225/2/6
f 224/1/6 225/1/6 226/1/6
f 226/1/6 225/1/6 227/1/6
f 226/2/6 227/2/6 228/2/6
f 228/2/6 227/2/6 229/2/6
f 228/1/6 229/1/6 230/1/6
f 230/1/6 229/1/6 231/1/6
f 230/2/6 231/2/6 232/2/6
f 232/2/6 231/2/6 233/2/6
f 232/1/6 233/1/6 234/1/6
f 234/1/6 233/1/6 235/1/6
f 234/2/6 235/2/6 236/2/6
f 236/2/6 235/2/6 237/2/6
f 236/1/6 237/1/6 238/1/6
f 238/1/6 237/1/6 239/1/6
f 238/2/6 239/2/6 240/2/6
f 240/2/6 239/2/6 241/2/6
f 240/1/6 241/1/6 242/1/6
f 242/1/6 241/1/6 243/1/6
f 242/2/6 243/2/6 244/2/6
f 244/2/6 243/2/6 245/2/6
f 244/1/6 245/1/6 246/1/6
f 246/1/6 245/1/6 247/1/6
f 246/2/6 247/2/6 248/2/6
f 248/2/6 247/2/6 249/2/6
f 248/4/6 249/4/6 250/4/6
f 250/4/6 249/4/6 251/4/6
f 252/4/6 253/4/6 254/4/6
f 254/4/6 253/4/6 255/4/6
f 256/3/6 257/3/6 258/3/6
f 258/3/6 257/3/6 259/3/6
